<?xml version="1.0" encoding="utf-8"?>
<svg xmlns="http://www.w3.org/2000/svg" viewBox="0 0 500 500" xmlns:bx="https://boxy-svg.com" width="500px" height="500px"><defs><bx:export><bx:file format="svg"/></bx:export></defs><g id="Layer_1" transform="matrix(0.615357, 0, 0, 0.606073, 144.675812, 101.849091)" style=""><path style="fill: rgb(172, 170, 176); stroke-width: 1px;" d="M 271.275 2.346 L 237.597 36.025 L 271.275 69.702 C 289.874 88.302 320.03 88.302 338.63 69.702 C 357.231 51.102 357.23 20.945 338.631 2.347 C 320.032 -16.254 289.875 -16.255 271.275 2.346 Z"/><path style="fill: rgb(198, 197, 202); stroke-width: 1px;" d="M -10.405 69.702 L 23.273 36.025 L -10.405 2.346 C -29.004 -16.254 -59.161 -16.254 -77.76 2.346 C -96.361 20.946 -96.36 51.104 -77.761 69.701 C -59.162 88.302 -29.005 88.303 -10.405 69.702 Z"/><path style="fill: rgb(216, 216, 218); stroke-width: 1px;" d="M 158.335 12.209 C 237.247 12.209 301.219 76.18 301.219 155.093 L 301.219 345.605 C 301.219 424.517 237.248 488.488 158.335 488.488 L 102.535 488.488 C 23.623 488.488 -40.349 424.517 -40.349 345.604 L -40.349 155.093 C -40.349 76.181 23.622 12.209 102.535 12.209"/><path style="fill: rgb(198, 197, 202); stroke-width: 1px;" d="M 158.335 12.209 L 130.435 12.209 L 130.435 488.488 L 158.335 488.488 C 237.247 488.488 301.219 424.517 301.219 345.604 L 301.219 155.093 C 301.219 76.18 237.248 12.209 158.335 12.209 Z"/><path style="fill: rgb(248, 248, 249); stroke-width: 1px;" d="M 205.963 286.069 C 205.963 246.612 154.249 -23.512 130.435 -23.512 C 106.621 -23.512 54.908 246.612 54.908 286.069 C 54.908 325.526 90.979 357.511 130.435 357.511 C 169.891 357.511 205.963 325.527 205.963 286.069 Z"/><path style="fill: rgb(88, 87, 93); stroke-width: 1px;" d="M 120.394 440.862 L 84.673 440.862 C 84.673 431.758 81.795 423.116 76.349 415.867 L 104.909 394.411 C 115.039 407.897 120.394 423.959 120.394 440.862 Z"/><path style="fill: rgb(69, 68, 73); stroke-width: 1px;" d="M 176.194 440.862 L 140.473 440.862 C 140.473 423.959 145.828 407.896 155.958 394.411 L 184.518 415.867 C 179.071 423.116 176.194 431.758 176.194 440.862 Z"/><path style="fill: rgb(88, 87, 93); stroke-width: 1px;" d="M 25.14 399.186 L 25.136 399.186 C 12.007 399.186 1.326 388.503 1.326 375.372 C 1.331 362.239 12.014 351.558 25.14 351.558 C 38.271 351.558 48.954 362.241 48.954 375.372 C 48.954 388.503 38.271 399.186 25.14 399.186 Z"/><path style="fill: rgb(69, 68, 73); stroke-width: 1px;" d="M 235.731 399.186 L 235.726 399.186 C 222.599 399.186 211.917 388.503 211.917 375.372 C 211.922 362.239 222.605 351.558 235.731 351.558 C 248.862 351.558 259.545 362.241 259.545 375.372 C 259.545 388.503 248.862 399.186 235.731 399.186 Z"/><path style="fill: rgb(237, 237, 237); stroke-width: 1px;" d="M 130.435 -23.512 L 130.435 357.511 C 169.891 357.511 205.963 325.526 205.963 286.069 C 205.963 246.612 154.249 -23.512 130.435 -23.512 Z"/></g><g id="tennis" style="" transform="matrix(15.192644, 0, 0, 13.437917, -4641.853027, -2723.041016)"><g id="SVGRepo_bgCarrier" stroke-width="0" transform="matrix(1, 0, 0, 1, 322.810822, 218.344513)"/><g id="SVGRepo_tracerCarrier" stroke-linecap="round" stroke-linejoin="round" transform="matrix(1, 0, 0, 1, 322.810822, 218.344513)"/><g id="SVGRepo_iconCarrier" transform="matrix(1, 0, 0, 1, 322.810822, 218.344513)"><path d="M13.1284,1.87c-1.5418-1.5406-4.5535-.7759-6.28,1.05a6.8282,6.8282,0,0,0-1.88,4.4,5.7275,5.7275,0,0,1-.57,2.72.6814.6814,0,0,0-.67.17l-2.49,2.5a.6941.6941,0,0,0,0,.98l.07.07a.7051.7051,0,0,0,.98,0l2.5-2.49a.683.683,0,0,0,.18-.66,8.5694,8.5694,0,0,1,3.12-.58,6.5487,6.5487,0,0,0,3.99-1.87C14.1084,6.13,14.579,3.3194,13.1284,1.87Zm-2.2-.04a2.3071,2.3071,0,0,1,1.64.61,2.548,2.548,0,0,1,.5,2.44l-2.95-2.96A3.8648,3.8648,0,0,1,10.9284,1.83Zm-4.57,6.81a2.6485,2.6485,0,0,1-.48-2.55l3.04,3.04A2.8522,2.8522,0,0,1,6.3584,8.64Zm2.88.39-3.26-3.27a5.1623,5.1623,0,0,1,.49-1.08l3.85,3.85A5.5093,5.5093,0,0,1,9.2384,9.03Zm1.34-.66-3.94-3.95a5.2032,5.2032,0,0,1,.74-.9l4.1,4.1A5.6869,5.6869,0,0,1,10.5784,8.37Zm1.11-.96-4.1-4.1a5.5714,5.5714,0,0,1,.84-.65l3.92,3.92A5.7187,5.7187,0,0,1,11.6884,7.41Zm.82-1.09L8.6984,2.5a4.1707,4.1707,0,0,1,1.09-.48l3.2,3.2A5.5656,5.5656,0,0,1,12.5084,6.32Z" style="fill: rgb(32, 85, 164);"/></g></g></svg>