<?xml version="1.0" encoding="utf-8"?>
<svg xmlns="http://www.w3.org/2000/svg" viewBox="7.546 17.994 500 500" xmlns:bx="https://boxy-svg.com" width="500px" height="500px"><defs><bx:export><bx:file format="svg"/></bx:export></defs><g id="SVGRepo_bgCarrier" stroke-width="0" transform="matrix(6.998538, 0, 0, 6.348047, 36.448601, 255.438507)" style=""/><g id="group-1" stroke-width="0" transform="matrix(5.384474, 0, 0, 6.179415, 209.761688, 232.648087)" style=""/><g id="group-2" stroke-width="0" transform="matrix(1, 0, 0, 1, 234.026031, 316.795624)"/><g id="group-3" stroke-linecap="round" stroke-linejoin="round" transform="matrix(1, 0, 0, 1, 234.026031, 316.795624)"/><g id="group-4" stroke-width="0" transform="matrix(1, 0, 0, 1, 314.544952, 150.427628)"/><g id="SVGRepo_tracerCarrier" stroke-linecap="round" stroke-linejoin="round" transform="matrix(1, 0, 0, 1, 314.544952, 150.427628)"/><g id="group-6" stroke-width="0" transform="matrix(1, 0, 0, 1, 228.153427, 200.778519)"/><g id="group-7" stroke-linecap="round" stroke-linejoin="round" transform="matrix(1, 0, 0, 1, 228.153427, 200.778519)"/><g id="group-10" stroke-width="0" transform="matrix(6.547432, 0, 0, 4.975071, 63.189251, 277.458893)" style=""/><g id="group-11" stroke-linecap="round" stroke-linejoin="round" transform="matrix(6.547432, 0, 0, 4.975071, 63.189251, 277.458893)" style=""/><g id="Winner" transform="matrix(4.598847, 0, 0, 3.890203, 135.892776, 310.143219)" style=""><path class="cls-1" d="M35.576,11.543,31,17H18.938l-4.55-5.472A2,2,0,0,1,14,10.345V0H36V10.311A2,2,0,0,1,35.576,11.543Z" style="fill: rgb(250, 92, 102);"/><rect class="cls-2" height="17" width="10" x="20" style="fill: rgb(233, 61, 91);"/><path class="cls-3" d="M31.062,21H19a3,3,0,0,1,0-6H31a2.916,2.916,0,0,1,3,3A2.882,2.882,0,0,1,31.062,21ZM19.008,17a1,1,0,1,0,0,2h12.05A.885.885,0,0,0,32,18a.919.919,0,0,0-1.012-1Z" style="fill: rgb(250, 206, 83);"/><path class="cls-3" d="M25.5,19c-.169,0-.333.02-.5.025S24.669,19,24.5,19a14.5,14.5,0,0,0,0,29c.169,0,.333-.02.5-.025s.331.025.5.025a14.5,14.5,0,0,0,0-29Z" style="fill: rgb(250, 206, 83);"/><circle class="cls-4" cx="24.5" cy="33.5" r="12.5" style="fill: rgb(250, 187, 83);"/><circle class="cls-3" cx="24.5" cy="33.5" r="10.5" style="fill: rgb(250, 206, 83);"/><path class="cls-4" d="M25,41a1,1,0,0,1-1-1V29.441l-2.288,2.323a1,1,0,1,1-1.424-1.4l4-4.063A1,1,0,0,1,26,27V40A1,1,0,0,1,25,41Z" style="fill: rgb(250, 187, 83);"/></g><g id="Layer_1" style="" transform="matrix(0.64288, 0, 0, 0.666649, 73.252052, 104.516205)"><g transform="matrix(1, 0, 0, 1, -4.514522, -74.881226)"><path style="fill: rgb(135, 134, 138); stroke-width: 1px;" d="M 127.101 122.232 C 105.485 119.468 75.362 113.647 54.614 101.598 C 42.218 94.398 33.384 82.832 29.739 69.026 C 26.103 55.253 28.053 40.864 35.229 28.507 C 42.405 16.15 53.935 7.326 67.7 3.659 C 81.497 -0.017 95.921 1.924 108.317 9.122 C 128.712 20.967 148.396 43.728 161.316 60.735 L 127.101 122.232 Z"/><path style="fill: rgb(211, 123, 147); stroke-width: 1px;" d="M 131.075 91.139 C 115.726 89.177 87.428 84.406 70.354 74.49 C 65.209 71.503 61.548 66.72 60.045 61.024 C 58.543 55.334 59.355 49.376 62.333 44.247 C 65.311 39.118 70.083 35.46 75.77 33.945 C 81.464 32.431 87.431 33.238 92.575 36.226 C 104.991 43.436 120.539 58.875 136.357 79.695 L 131.075 91.139 Z"/><path style="fill: rgb(100, 100, 103); stroke-width: 1px;" d="M 440.799 122.232 C 462.415 119.468 492.538 113.647 513.286 101.598 C 525.682 94.398 534.516 82.832 538.161 69.026 C 541.797 55.253 539.847 40.864 532.671 28.507 C 525.495 16.15 513.963 7.326 500.199 3.659 C 486.402 -0.017 471.978 1.924 459.582 9.122 C 439.187 20.967 419.503 43.728 406.583 60.735 L 440.799 122.232 Z"/><path style="fill: rgb(157, 91, 110); stroke-width: 1px;" d="M 436.826 91.139 C 452.175 89.177 480.473 84.406 497.547 74.49 C 502.692 71.503 506.353 66.72 507.856 61.024 C 509.358 55.334 508.546 49.376 505.568 44.247 C 502.59 39.118 497.818 35.46 492.131 33.945 C 486.437 32.431 480.47 33.238 475.326 36.226 C 462.91 43.436 447.362 58.875 431.544 79.695 L 436.826 91.139 Z"/><path style="fill: rgb(135, 134, 138); stroke-width: 1px;" d="M 283.95 442.387 C 235.131 442.387 201.286 429.024 180.48 401.533 C 162.422 377.673 157.125 347.316 152.003 317.959 C 149.154 301.633 146.463 286.213 141.764 272.09 C 137.579 259.516 133.541 248.767 129.637 238.372 C 117.961 207.294 108.74 182.747 108.74 142.795 C 108.74 115.412 114.992 91.823 127.324 72.682 C 138.181 55.831 153.792 42.347 173.723 32.604 C 210.29 14.73 254.145 12.662 283.951 12.662 C 313.757 12.662 357.612 14.73 394.179 32.604 C 414.11 42.347 429.721 55.831 440.578 72.682 C 452.91 91.821 459.162 115.412 459.162 142.795 C 459.162 182.746 449.94 207.293 438.265 238.371 C 434.359 248.765 430.321 259.514 426.138 272.089 C 421.438 286.213 418.748 301.633 415.899 317.958 C 410.776 347.316 405.48 377.672 387.422 401.532 C 366.614 429.023 332.769 442.387 283.95 442.387 Z"/><path style="fill: rgb(100, 100, 103); stroke-width: 1px;" d="M 283.95 442.387 C 283.95 420.641 283.95 48.68 283.95 12.665 C 313.756 12.665 357.611 14.733 394.178 32.607 C 414.109 42.35 429.72 55.834 440.577 72.685 C 452.909 91.824 459.161 115.415 459.161 142.798 C 459.161 182.749 449.939 207.296 438.264 238.374 C 434.358 248.768 430.32 259.517 426.137 272.092 C 421.437 286.216 418.747 301.636 415.898 317.961 C 410.775 347.319 405.479 377.675 387.421 401.535 C 366.614 429.023 332.769 442.387 283.95 442.387 Z"/><g transform="matrix(1, 0, 0, 1, 27.950153, -33.885849)"><path style="fill:#333333;" d="M163.861,171.08c0-11.512,9.228-20.834,20.568-20.834c11.354,0,20.581,9.323,20.581,20.834 c0,11.51-9.227,20.841-20.581,20.841C173.089,191.921,163.861,182.59,163.861,171.08z"/><path style="fill:#333333;" d="M348.14,171.08c0-11.597-9.288-20.997-20.723-20.997c-11.449,0-20.737,9.4-20.737,20.997 c0,11.597,9.288,20.997,20.737,20.997C338.852,192.077,348.14,182.676,348.14,171.08z"/></g><path style="fill: rgb(216, 217, 221); stroke-width: 1px;" d="M 283.95 369.654 C 248.565 369.654 219.776 340.866 219.776 305.48 C 219.776 296.968 222.411 279.223 245.199 223.664 C 257.315 194.123 269.602 167.52 269.725 167.254 L 283.95 136.501 L 298.174 167.255 C 298.296 167.52 310.583 194.124 322.7 223.665 C 345.488 279.224 348.123 296.967 348.123 305.481 C 348.124 340.865 319.335 369.654 283.95 369.654 Z"/><path style="fill: rgb(160, 161, 165); stroke-width: 1px;" d="M 283.95 369.654 L 283.95 136.501 L 298.174 167.255 C 298.296 167.52 310.583 194.124 322.7 223.665 C 345.488 279.224 348.123 296.967 348.123 305.481 C 348.124 340.865 319.335 369.654 283.95 369.654 Z"/></g></g><title/></svg>