<?xml version="1.0" encoding="utf-8"?>
<svg xmlns="http://www.w3.org/2000/svg" viewBox="7.546 17.994 500 500" xmlns:bx="https://boxy-svg.com" width="500px" height="500px"><defs><bx:export><bx:file format="svg"/></bx:export></defs><g id="SVGRepo_bgCarrier" stroke-width="0" transform="matrix(6.998538, 0, 0, 6.348047, 36.448601, 255.438507)" style=""/><g id="group-1" stroke-width="0" transform="matrix(5.384474, 0, 0, 6.179415, 209.761688, 232.648087)" style=""/><g id="group-2" stroke-width="0" transform="matrix(1, 0, 0, 1, 234.026031, 316.795624)"/><g id="group-3" stroke-linecap="round" stroke-linejoin="round" transform="matrix(1, 0, 0, 1, 234.026031, 316.795624)"/><g id="group-4" stroke-width="0" transform="matrix(1, 0, 0, 1, 314.544952, 150.427628)"/><g id="SVGRepo_tracerCarrier" stroke-linecap="round" stroke-linejoin="round" transform="matrix(1, 0, 0, 1, 314.544952, 150.427628)"/><g id="group-6" stroke-width="0" transform="matrix(1, 0, 0, 1, 228.153427, 200.778519)"/><g id="group-7" stroke-linecap="round" stroke-linejoin="round" transform="matrix(1, 0, 0, 1, 228.153427, 200.778519)"/><g id="group-10" stroke-width="0" transform="matrix(6.547432, 0, 0, 4.975071, 63.189251, 277.458893)" style=""/><g id="group-11" stroke-linecap="round" stroke-linejoin="round" transform="matrix(6.547432, 0, 0, 4.975071, 63.189251, 277.458893)" style=""/><title/><g id="svg-1" transform="matrix(0.447585, 0, 0, 0.431337, 81.10611, 55.263168)" style=""><path style="fill: rgb(133, 135, 141); stroke-width: 1px;" d="M 248.973 65.18 C 242.451 58.658 231.885 58.664 225.364 65.174 C 209.592 80.94 200.908 101.902 200.908 124.208 C 200.908 146.507 209.593 167.469 225.365 183.24 C 241.169 199.039 262.061 207.68 284.343 207.68 L 314.799 131.011 L 248.973 65.18 Z"/><path style="fill: rgb(230, 200, 146); stroke-width: 1px;" d="M 239.169 102.598 C 235.985 109.261 234.299 116.603 234.299 124.207 C 234.299 137.582 239.506 150.163 248.973 159.625 C 258.69 169.332 271.636 174.5 285.354 174.283 L 291.191 154.62 L 239.169 102.598 Z"/><path style="fill: rgb(126, 127, 133); stroke-width: 1px;" d="M 677.093 65.182 C 670.572 58.661 660.006 58.661 653.484 65.182 L 587.647 131.014 L 618.103 207.683 C 640.396 207.683 661.288 199.041 677.092 183.237 C 709.636 150.687 709.636 97.725 677.093 65.182 Z"/><path style="fill: rgb(216, 182, 138); stroke-width: 1px;" d="M 663.266 102.621 L 611.255 154.621 L 618.081 174.29 C 631.461 174.29 643.994 169.105 653.484 159.621 C 668.875 144.23 672.136 121.236 663.266 102.621 Z"/><path style="fill: rgb(163, 165, 174); stroke-width: 1px;" d="M 484.657 60.29 L 417.874 60.29 C 375.132 60.29 334.173 78.655 305.678 110.488 C 281.192 138.092 267.614 173.598 267.614 210.551 L 267.614 397.876 C 267.614 417.354 274.515 436.276 286.981 451.302 L 334.397 508.179 L 334.397 522.203 C 334.397 549.806 356.88 572.29 384.484 572.29 L 518.049 572.29 C 545.652 572.29 568.136 549.807 568.136 522.203 L 568.136 508.179 L 615.552 451.302 C 628.018 436.276 634.919 417.354 634.919 397.876 L 634.919 210.551 C 634.918 127.74 567.468 60.29 484.657 60.29 Z"/><path style="fill: rgb(153, 156, 164); stroke-width: 1px;" d="M 634.918 210.551 L 634.918 397.876 C 634.918 417.354 628.017 436.276 615.551 451.302 L 568.135 508.179 L 568.135 522.203 C 568.135 549.806 545.652 572.29 518.048 572.29 L 451.265 572.29 L 451.265 60.29 L 484.656 60.29 C 567.468 60.29 634.918 127.74 634.918 210.551 Z"/><circle style="fill: rgb(105, 107, 111); stroke-width: 1px;" cx="417.879" cy="488.812" r="16.696"/><circle style="fill: rgb(97, 98, 103); stroke-width: 1px;" cx="484.662" cy="488.812" r="16.696"/><circle style="fill: rgb(105, 107, 111); stroke-width: 1px;" cx="351.097" cy="277.333" r="16.696"/><circle style="fill: rgb(97, 98, 103); stroke-width: 1px;" cx="551.444" cy="277.333" r="16.696"/><path style="fill: rgb(133, 135, 141); stroke-width: 1px;" d="M 372.766 427.594 C 365.734 427.594 359.2 423.126 356.896 416.083 C 354.027 407.322 358.809 397.893 367.57 395.023 C 384.352 389.539 395.973 377.404 402.113 358.964 C 405.015 350.214 414.472 345.469 423.222 348.399 C 431.972 351.317 436.7 360.768 433.787 369.519 C 424.255 398.139 404.95 417.932 377.961 426.764 C 376.234 427.323 374.484 427.594 372.766 427.594 Z"/><path style="fill: rgb(126, 127, 133); stroke-width: 1px;" d="M 529.856 427.594 C 528.139 427.594 526.389 427.328 524.66 426.763 C 497.682 417.931 478.366 398.143 468.823 369.524 C 465.91 360.78 470.627 351.322 479.377 348.404 C 488.127 345.491 497.573 350.214 500.497 358.958 C 506.649 377.403 518.28 389.54 535.051 395.023 C 543.812 397.892 548.595 407.322 545.725 416.083 C 543.42 423.121 536.888 427.594 529.856 427.594 Z"/><path style="fill: rgb(223, 226, 239); stroke-width: 1px;" d="M 491.558 257.633 C 479.426 139.428 469.964 127.073 451.377 127.073 L 451.266 127.073 C 432.679 127.073 423.217 139.65 411.085 257.633 C 405.075 316.402 401.29 378.287 401.29 388.638 C 401.29 416.241 423.662 438.614 451.266 438.725 L 451.377 438.725 C 478.98 438.725 501.464 416.242 501.464 388.638 C 501.464 378.287 497.568 316.401 491.558 257.633 Z"/><path style="fill: rgb(213, 215, 229); stroke-width: 1px;" d="M 501.464 388.638 C 501.464 416.241 478.981 438.725 451.377 438.725 L 451.266 438.725 L 451.266 127.073 L 451.377 127.073 C 469.964 127.073 479.426 139.428 491.558 257.633 C 497.568 316.401 501.464 378.287 501.464 388.638 Z"/></g><g id="group-5" stroke-width="0" transform="matrix(2.944184, 0, 0, 2.8046, 276.268982, 218.811707)" style=""/><g id="group-8" stroke-linecap="round" stroke-linejoin="round" transform="matrix(2.944184, 0, 0, 2.8046, 276.268982, 218.811707)" style=""/><g id="SVGRepo_iconCarrier" transform="matrix(4.092302, 0, 0, 3.39793, 116.952087, 197.917999)" style=""><g fill="#d0d0d0"><path d="M42.2 62c-.2 0-.5-.1-.7-.2c-.4-.3-.6-.7-.5-1.1c0-.1 2.5-10.8-12.3-22.5c-.5-.4-.5-1.1-.1-1.5c.4-.5 1.2-.5 1.6-.1C42 46 43.6 54.7 43.5 58.9c9.5-6.1 14.8-12.4 15.9-18.8c.9-5.9-2.3-9.5-2.4-9.7c-.4-.5-.3-1.1.1-1.5c.5-.4 1.2-.3 1.6.1c.2.2 4 4.5 2.9 11.3c-1.2 7.4-7.5 14.7-19 21.6c.1 0-.2.1-.4.1"/><path d="M31.8 62c-.3 0-.5-.1-.8-.3c-.4-.3-.5-.8-.3-1.3c.2-.4 4.4-9.3-6.9-21.2c-.4-.5-.4-1.1.1-1.5c.5-.4 1.2-.4 1.6.1c8.4 8.9 8.9 16.4 8.2 20.4C52.8 44.6 51 33.2 51 33.1c-.1-.5.2-.9.6-1.2c.5-.2 1-.1 1.4.2c12.8 13 4 20.9 4 21c-.5.4-1.2.4-1.7 0c-.4-.4-.4-1.1 0-1.5c.3-.3 6.2-5.8-2.1-15.7c-.6 4.9-4 14.9-20.9 25.9c-.1.1-.3.2-.5.2"/><path d="M51.3 62H51c-.6-.2-1-.8-.8-1.3c.1-.4 2.9-10.2-10.2-21.5c-1 3.5-4.2 11.1-13.5 18.5c-.5.4-1.2.3-1.6-.1c-.4-.5-.4-1.1.1-1.5c11.6-9.2 13.2-19 13.2-19.1c.1-.4.3-.7.7-.9c.4-.1.8-.1 1.2.2c16 12.7 12.6 24.4 12.4 24.9c-.2.5-.7.8-1.2.8"/></g><path d="M30.5 41.2c-12.7 0-11.1-6.2-9.4-8.5C25.8 26.4 43.6 20 53 20c10.8 0 9.1 6 6.8 9c-5.1 6.9-19.9 12.2-29.3 12.2M53 23.1c-7.7 0-21.9 5.2-26.6 9.7c-.9.9-2.6 3.3 4.2 3.3c8.4 0 21.2-5.2 25.1-9.8c1.3-1.7 2-3.2-2.7-3.2" fill="#3584e4"/><circle cx="22" cy="22" r="20" fill="#ff8736"/><g fill="#231f20"><path d="M7.8 8c.4 1.7 1.1 3.2 1.9 4.7c.8 1.5 1.7 3 2.6 4.4c1.9 2.8 3.9 5.6 6.1 8.2c2.2 2.6 4.5 5.1 7 7.4c1.3 1.1 2.6 2.2 4 3.1c1.4 1 2.9 1.7 4.6 2.2c-1.7-.1-3.4-.8-5-1.6s-3-1.8-4.4-2.9c-2.7-2.2-5.2-4.7-7.4-7.3c-2.2-2.7-4.2-5.5-5.9-8.6c-.8-1.4-1.6-3-2.3-4.6c-.6-1.6-1.1-3.3-1.2-5"/><path d="M2 21.5c1.2 2.5 2.7 4.8 4.5 6.7c1.9 1.9 4.1 3.4 6.6 4.5c2.4 1.1 5.1 1.9 7.6 3c1.3.6 2.6 1.2 3.7 2.2c1.1.9 1.9 2.3 2.1 3.6c-.5-1.3-1.4-2.3-2.5-3c-1.1-.7-2.4-1.2-3.7-1.6c-2.6-.9-5.3-1.6-7.9-2.8c-2.6-1.2-5-2.8-6.8-5c-1.8-2.3-3-4.9-3.6-7.6"/><path d="M38.1 33.9c-1.6.7-3.5 1-5.3.2c-1.8-.8-2.8-2.6-3.5-4.2c-1.4-3.4-1.9-6.9-2.6-10.3c-.7-3.4-1.5-6.8-3-9.8c-1.5-3-4-5.7-7.3-6.9c1.7.4 3.4 1.2 4.8 2.3c1.4 1.1 2.6 2.6 3.5 4.1c1.8 3.1 2.7 6.7 3.5 10.1l1 5.2c.3 1.7.7 3.4 1.3 5c.6 1.6 1.3 3.1 2.7 4c1.3.8 3.2.7 4.9.3"/><path d="M33.6 5.7c.9.6 1.6 1.5 2.1 2.5s1 2 1.3 3.1c.7 2.1 1 4.3 1.1 6.6c.2 4.4-.9 9.1-3.4 12.9c-1.3 1.9-2.9 3.5-4.8 4.8c-1.9 1.3-4 2.2-6.2 2.7c-4.3 1.1-8.9 1-13.2.3c4.4.1 8.8-.1 12.8-1.4c4.1-1.3 7.7-3.7 10-7.2c2.4-3.5 3.4-7.8 3.5-12c0-2.1-.2-4.3-.6-6.4c-.4-2.2-1-4.4-2.6-5.9"/></g></g></svg>