<?xml version="1.0" encoding="utf-8"?>
<svg xmlns="http://www.w3.org/2000/svg" viewBox="0 0 500 500">
  <g id="group-1" stroke-width="0" transform="matrix(4.489552, 0, 0, 5.067817, 536.666016, 249.860168)" style=""/>
  <g id="group-2" stroke-linecap="round" stroke-linejoin="round" transform="matrix(4.489552, 0, 0, 5.067817, 536.666016, 249.860168)" style=""/>
  <g id="group-4" stroke-width="0" transform="matrix(1.93633, 0, 0, 2.073658, 324.53183, 197.815231)" style=""/>
  <g id="group-5" stroke-linecap="round" stroke-linejoin="round" transform="matrix(1.93633, 0, 0, 2.073658, 324.53183, 197.815231)" style=""/>
  <g id="group-3" stroke-width="0" transform="matrix(1, 0, 0, 1, 48.626717, 335.143585)"/>
  <g id="group-6" stroke-linecap="round" stroke-linejoin="round" transform="matrix(1, 0, 0, 1, 48.626717, 335.143585)"/>
  <g id="svg-1" transform="matrix(0.865799, 0, 0, 0.828096, 186.105469, -60.694195)" style="">
    <g id="group-7" stroke-width="0" transform="matrix(1, 0, 0, 1, -178.596756, 133.511978)"/>
    <g id="group-8" stroke-linecap="round" stroke-linejoin="round" transform="matrix(1, 0, 0, 1, -178.596756, 133.511978)"/>
    <g id="group-9" transform="matrix(1, 0, 0, 1, -178.596756, 133.511978)">
      <g>
        <g>
          <path d="M304.002,322.529H26.981V91.202h222.465l20.376-24.48H14.741c-6.76,0-12.24,5.48-12.24,12.24v255.807 c0,6.76,5.48,12.24,12.24,12.24h289.269L304.002,322.529z"/>
        </g>
      </g>
      <g/>
      <g>
        <g>
          <path d="M465.933,172.775c-0.125-24.445-20.107-44.326-44.549-44.326c-16.308,0-70.936,0-87.005,0l-41.222-4.82l22.189-26.659 c6.654-7.994,5.563-19.862-2.426-26.511c-7.986-6.649-19.856-5.57-26.511,2.426l-44.417,53.365 c-4.42,5.309-5.576,12.613-3.013,19.028c2.554,6.39,8.408,10.907,15.295,11.713l66.419,7.766c0,0,0.009,322.776,0.009,324.655 c0,12.476,10.114,22.59,22.59,22.59s22.59-10.114,22.59-22.59v-180.56h9.754v180.56c0,12.476,10.114,22.59,22.59,22.59 s22.59-10.114,22.59-22.59c0-298.716-0.401-127.71-0.41-316.413c0-2.169,1.753-3.93,3.922-3.94 c2.169-0.01,3.938,1.736,3.957,3.906l0.695,138.298c0.052,10.346,8.449,18.731,18.822,18.731c0.032,0,0.066,0,0.097,0 c10.396-0.052,18.782-8.522,18.73-18.919L465.933,172.775z"/>
        </g>
      </g>
      <g>
        <g>
          <path d="M371.012,33.405c-21.587,0-39.015,17.51-39.015,39.015c0,21.448,17.382,39.015,39.015,39.015 c21.547,0,39.015-17.468,39.015-39.015C410.026,50.806,392.505,33.405,371.012,33.405z"/>
        </g>
      </g>
      <g>
        <g>
          <path d="M127.186,212.896l-11.916-16.423l11.116-15.421c0.501-0.801,0.801-1.402,0.801-2.103c0-3.004-5.408-6.51-8.511-6.51 c-0.901,0-2.303,0.401-3.004,1.502l-9.213,14.521l-9.112-14.621c-0.801-1.302-2.303-1.402-2.904-1.402 c-3.405,0-8.613,3.505-8.613,6.51c0,0.801,0.501,1.703,0.801,2.103l11.015,15.321l-11.817,16.524 c-0.502,0.6-0.802,1.401-0.802,2.202c0,3.004,5.508,6.409,8.211,6.409c1.001,0,2.504-0.401,3.205-1.402l10.015-15.221 l10.115,15.221c0.701,1.001,2.003,1.402,3.004,1.402c3.405,0,8.412-3.605,8.412-6.409 C127.987,214.198,127.586,213.297,127.186,212.896z"/>
        </g>
      </g>
      <g>
        <g>
          <path d="M168.144,191.166h-10.616V180.55c0-2.103-2.103-4.106-5.308-4.106c-3.004,0-5.408,2.003-5.408,4.106v10.615h-10.715 c-2.404,0-4.006,2.404-4.006,5.408c0,3.205,1.602,5.308,4.006,5.308h10.715v10.714c0,2.404,2.404,4.006,5.408,4.006 c3.205,0,5.308-1.602,5.308-4.006v-10.714h10.616c2.103,0,4.206-2.103,4.206-5.308 C172.35,193.569,170.247,191.166,168.144,191.166z"/>
        </g>
      </g>
      <g>
        <g>
          <path d="M212.507,172.338c-1.402,0-2.904,0.601-3.405,2.203l-9.713,29.943l-12.018-29.943c-0.501-1.602-2.003-2.203-3.705-2.203 c-3.305,0-8.613,2.804-8.613,6.209c0,0.601,0.2,1.202,0.401,1.702l17.224,36.853c-0.7,12.016-9.913,14.72-14.32,14.72 c-2.404,0-3.305,2.504-3.305,5.408c0,4.807,2.604,5.508,5.909,5.508c17.925,0,20.729-13.119,25.436-25.136l14.62-37.353 c0.2-0.501,0.3-1.102,0.3-1.502C221.319,175.142,215.61,172.338,212.507,172.338z"/>
        </g>
      </g>
      <g>
        <g>
          <path d="M257.272,200.779h-25.837c-2.404,0-4.006,2.404-4.006,5.408c0,3.205,1.602,5.308,4.006,5.308h25.837 c2.103,0,4.206-2.103,4.206-5.308C261.478,203.182,259.375,200.779,257.272,200.779z"/>
        </g>
      </g>
      <g>
        <g>
          <path d="M257.272,180.45h-25.837c-2.404,0-4.006,2.404-4.006,5.408c0,3.205,1.602,5.308,4.006,5.308h25.837 c2.103,0,4.206-2.103,4.206-5.308C261.478,182.853,259.375,180.45,257.272,180.45z"/>
        </g>
      </g>
    </g>
  </g>
  <g id="Layer_1" transform="matrix(0.316665, 0, 0, 0.281903, 254.262833, 50.311901)" style="">
    <g id="SVGRepo_bgCarrier" stroke-width="0" transform="matrix(1, 0, 0, 1, 66.097313, -106.81147)"/>
    <g id="SVGRepo_tracerCarrier" stroke-linecap="round" stroke-linejoin="round" transform="matrix(1, 0, 0, 1, 66.097313, -106.81147)"/>
    <g id="SVGRepo_iconCarrier" transform="matrix(1, 0, 0, 1, 66.097313, -106.81147)">
      <path style="fill:#85878D;" d="M53.769,4.89C47.247-1.632,36.681-1.626,30.16,4.884C14.388,20.65,5.704,41.612,5.704,63.918 c0,22.299,8.685,43.261,24.457,59.032c15.804,15.799,36.696,24.44,58.978,24.44l30.456-76.669L53.769,4.89z"/>
      <path style="fill:#E6C892;" d="M43.965,42.308c-3.184,6.663-4.87,14.005-4.87,21.609c0,13.375,5.207,25.956,14.674,35.418 c9.717,9.707,22.663,14.875,36.381,14.658l5.837-19.663L43.965,42.308z"/>
      <path style="fill:#7E7F85;" d="M481.889,4.892c-6.521-6.521-17.087-6.521-23.609,0l-65.837,65.832l30.456,76.669 c22.293,0,43.185-8.642,58.989-24.446C514.432,90.397,514.432,37.435,481.889,4.892z"/>
      <path style="fill:#D8B68A;" d="M468.062,42.331l-52.011,52L422.877,114c13.38,0,25.913-5.185,35.403-14.669 C473.671,83.94,476.932,60.946,468.062,42.331z"/>
      <path style="fill:#A3A5AE;" d="M289.453,0h-66.783c-42.742,0-83.701,18.365-112.196,50.198 C85.988,77.802,72.41,113.308,72.41,150.261v187.325c0,19.478,6.901,38.4,19.367,53.426l47.416,56.877v14.024 c0,27.603,22.483,50.087,50.087,50.087h133.565c27.603,0,50.087-22.483,50.087-50.087v-14.024l47.416-56.877 c12.466-15.026,19.367-33.948,19.367-53.426V150.261C439.714,67.45,372.264,0,289.453,0z"/>
      <path style="fill:#999CA4;" d="M439.714,150.261v187.325c0,19.478-6.901,38.4-19.367,53.426l-47.416,56.877v14.024 c0,27.603-22.483,50.087-50.087,50.087h-66.783V0h33.391C372.264,0,439.714,67.45,439.714,150.261z"/>
      <circle style="fill:#696B6F;" cx="222.675" cy="428.522" r="16.696"/>
      <circle style="fill:#616267;" cx="289.458" cy="428.522" r="16.696"/>
      <circle style="fill:#696B6F;" cx="155.893" cy="217.043" r="16.696"/>
      <circle style="fill:#616267;" cx="356.24" cy="217.043" r="16.696"/>
      <path style="fill:#85878D;" d="M177.562,367.304c-7.032,0-13.566-4.468-15.87-11.511c-2.869-8.761,1.913-18.19,10.674-21.06 c16.782-5.484,28.403-17.619,34.543-36.059c2.902-8.75,12.359-13.495,21.109-10.565c8.75,2.918,13.478,12.369,10.565,21.12 c-9.532,28.62-28.837,48.413-55.826,57.245C181.03,367.033,179.28,367.304,177.562,367.304z"/>
      <path style="fill:#7E7F85;" d="M334.652,367.304c-1.717,0-3.467-0.266-5.196-0.831c-26.978-8.832-46.294-28.62-55.837-57.239 c-2.913-8.744,1.804-18.202,10.554-21.12c8.75-2.913,18.196,1.81,21.12,10.554c6.152,18.445,17.783,30.582,34.554,36.065 c8.761,2.869,13.544,12.299,10.674,21.06C348.216,362.831,341.684,367.304,334.652,367.304z"/>
      <path style="fill:#DFE2EF;" d="M296.354,197.343c-12.132-118.205-21.594-130.56-40.181-130.56h-0.111 c-18.587,0-28.049,12.577-40.181,130.56c-6.01,58.769-9.795,120.654-9.795,131.005c0,27.603,22.372,49.976,49.976,50.087h0.111 c27.603,0,50.087-22.483,50.087-50.087C306.26,317.997,302.364,256.111,296.354,197.343z"/>
      <path style="fill:#D5D7E5;" d="M306.26,328.348c0,27.603-22.483,50.087-50.087,50.087h-0.111V66.783h0.111 c18.587,0,28.049,12.355,40.181,130.56C302.364,256.111,306.26,317.997,306.26,328.348z"/>
    </g>
  </g>
  <g id="group-10" stroke-width="0" transform="matrix(1, 0, 0, 1, 384.823975, -22.177282)"/>
  <g id="group-11" stroke-linecap="round" stroke-linejoin="round" transform="matrix(1, 0, 0, 1, 384.823975, -22.177282)"/>
  <g id="group-12" transform="matrix(0.892201, 0, 0, 0.863003, 390.123322, 1.349622)" style="">
    <ellipse cx="64" cy="116.87" rx="12.09" ry="7.13" fill="#424242"/>
    <path d="M64 4C42.92 4 25.82 19.67 25.82 38.99c0 5.04 1.52 10.43 3.75 15.18c3.13 6.68 6.54 11.62 7.54 13.44c2.78 5.06 2.38 10.39 3.15 13.73c1.45 6.24 5.79 8.5 23.73 8.5s21.8-2.15 23.41-7.9c1.1-3.91.03-8.18 2.8-13.23c1-1.82 5.07-7.85 8.21-14.54c2.23-4.75 3.75-10.14 3.75-15.18C102.18 19.67 85.08 4 64 4z" fill="#ffd600"/>
    <ellipse cx="64" cy="86.13" rx="21.94" ry="4.46" fill="#b26500"/>
    <ellipse cx="64" cy="86.13" rx="21.94" ry="4.46" fill="#b26500"/>
    <ellipse cx="64" cy="86.13" rx="15.99" ry="2.06" fill="#ffa000"/>
    <g fill="none" stroke-width="2" stroke-miterlimit="10">
      <path d="M53.3 56.77c-.62 1.56-2.23 4.77-1.39 6.21c1.95 3.35 6.6 4.55 6.6 7.63c0 4.7-3.42 19.93-3.42 19.93" stroke="#b26500"/>
      <path d="M74.03 56.21s2.24 4.8 1.29 6.95c-.71 1.6-4.98 4.18-5.53 4.61c-2.55 2 .84 22.78.84 22.78" stroke="#b26500"/>
      <path d="M53.3 56.77c3.44-6.8 5.21-22.32.84-21.53c-7.37 1.33 1.71 26.83 6.18 23.9s10.01-23.85 3.21-23.93c-6.8-.08.46 26.66 5.08 23.69c3.65-2.35 12.56-23.66 5.24-23.66c-6.23 0 .19 20.97.19 20.97" stroke="#ffffff"/>
    </g>
    <path d="M85.89 87.06S80.13 89.84 64 89.84s-21.89-2.78-21.89-2.78s-.36 5.14.83 7.47c1.43 2.8 2.53 3.77 2.53 3.77l.6 2.85l-.24.75c-.31.98-.09 2.06.6 2.83l.52.58l.58 2.74l-.2.55c-.38 1.05-.12 2.22.66 3.02l.38.39l.47 2.24s2.38 5.08 15.16 5.08s15.16-5.08 15.16-5.08l.04-.19l.26-.26c.52-.51.69-1.27.44-1.95l-.15-.39l.62-2.96l1.09-1.15c.54-.57.66-1.41.31-2.11l-.5-.99l.63-2.97l.4-.31c.59-.65.6-1.63.34-2.3c-.2-.53-.04-1.13.37-1.52c.63-.6 1.44-1.51 2.04-2.64c1.23-2.29.84-7.45.84-7.45z" fill="#82aec0"/>
    <path d="M45.47 98.3l.54 2.87c5.82-.03 13.59.26 28.5-2.11c2.69-.61 5.92-1.82 2.35-1.32c0-.01-13.69 1.3-31.39.56z" fill="#2f7889"/>
    <path d="M47.47 108.07c6.44-.11 19.6-.75 33.74-3.82l.63-2.97c-14.79 3.36-28.7 3.96-34.95 4.04l.58 2.75z" fill="#2f7889"/>
    <path d="M80.31 108.49c-13.09 2.84-25.34 3.57-31.97 3.73l.43 2.04s.21 6.33 15.16 6.33s15.16-6.33 15.16-6.33s-6.38 1.82-14.23.93a.63.63 0 0 1-.01-1.26c4.69-.62 10.29-1.54 14.84-2.48l.62-2.96z" fill="#2f7889"/>
    <path d="M42.18 87.06s6.46 2.78 21.76 2.78s21.88-2.78 21.88-2.78" fill="none" stroke="#82aec0" stroke-width="3.997" stroke-linecap="round" stroke-miterlimit="10"/>
    <path d="M49.88 10.32c3.91-.96 8-.48 10.8 2.92c.79.96 1.4 2.1 1.54 3.34c.28 2.39-1.2 4.65-2.96 6.31c-5.02 4.74-12.15 7.04-15.39 13.58c-.76 1.53-1.36 3.18-2.52 4.43c-1.16 1.25-3.09 2.01-4.6 1.21c-.8-.42-1.35-1.21-1.8-2c-2.84-5.06-2.63-11.51-.13-16.75c2.75-5.74 8.78-11.5 15.06-13.04z" fill="#ffff8d"/>
    <path d="M46.45 91.93c-.88-.4-.53-1.72.43-1.65c3.22.25 8.7.56 15.95.56c7.64 0 14.36-.57 18.28-.99c.97-.1 1.34 1.23.45 1.64c-3.02 1.42-8.55 3.04-18.03 3.04c-9.25 0-14.35-1.37-17.08-2.6z" fill="#ffd600"/>
    <path d="M51.94 102.03c-.67.24-1.36.57-1.7 1.19c-.12.23-.19.49-.14.75c.08.38.43.65.78.82c.7.34 1.49.43 2.26.44c1.59.02 3.17-.28 4.74-.58c.47-.09.95-.18 1.37-.41c.42-.23.78-.62.85-1.09c.1-.63-.35-1.24-.9-1.54c-1.9-1.05-5.34-.27-7.26.42z" fill="#94d1e0"/>
    <path d="M53.43 108.62c-.67.24-1.36.57-1.7 1.19c-.12.23-.19.49-.14.75c.08.38.43.65.78.82c.7.34 1.49.43 2.26.44c1.59.02 3.17-.28 4.74-.58c.47-.09.95-.18 1.37-.41c.42-.23.78-.62.85-1.09c.1-.63-.35-1.24-.9-1.54c-1.9-1.04-5.35-.26-7.26.42z" fill="#94d1e0"/>
    <path d="M50.01 84.2c.91.09 1.87.01 2.64-.48s1.26-1.49.95-2.35c-.16-.45-.51-.81-.85-1.15c-.75-.74-1.5-1.48-2.24-2.22c-.83-.83-1.66-1.65-2.56-2.4c-1.39-1.16-3.26-2.25-5.09-1.4c-1.56.72-1.93 2.14-1.24 3.63c1.47 3.13 4.89 6.01 8.39 6.37z" fill="#ffff8d"/>
  </g>
  <g id="Capa_1" transform="matrix(1, 0, 0, 1, -1.149298, -96.563721)">
    <g id="group-13" stroke-width="0" transform="matrix(1, 0, 0, 1, 40.664722, 312.164978)"/>
    <g id="group-14" stroke-linecap="round" stroke-linejoin="round" transform="matrix(1, 0, 0, 1, 40.664722, 312.164978)"/>
    <g id="group-15" transform="matrix(1, 0, 0, 1, 40.664722, 312.164978)">
      <g/>
    </g>
  </g>
</svg>