<?xml version="1.0" encoding="utf-8"?>
<svg height="800px" width="800px" version="1.1" id="Layer_1" xmlns="http://www.w3.org/2000/svg" viewBox="0 0 512 512" xmlns:bx="https://boxy-svg.com">
  <defs>
    <bx:export>
      <bx:file format="svg" href="#object-0" excluded="true"/>
    </bx:export>
  </defs>
  <path style="fill:#ACAAB0;" d="M 313.105 31.611 L 279.427 65.29 L 313.105 98.967 C 331.704 117.567 361.86 117.567 380.46 98.967 C 399.061 80.367 399.06 50.21 380.461 31.612 C 361.862 13.011 331.705 13.01 313.105 31.611 Z"/>
  <path style="fill:#C6C5CA;" d="M115.16,93.214l33.678-33.677L115.16,25.858c-18.599-18.6-48.756-18.6-67.355,0 c-18.601,18.6-18.6,48.758-0.001,67.355C66.403,111.814,96.56,111.815,115.16,93.214z"/>
  <path style="fill: rgb(216, 216, 218);" d="M 229.651 36.208 C 287.524 36.208 334.441 84.917 334.441 145.004 L 334.441 290.066 C 334.441 350.152 287.525 398.861 229.651 398.861 L 188.728 398.861 C 130.855 398.861 83.938 350.152 83.938 290.065 L 83.938 145.004 C 83.938 84.918 130.854 36.208 188.728 36.208" id="object-0"/>
  <path style="fill: rgb(198, 197, 202);" d="M 230.588 35.721 L 210.127 35.721 L 210.127 398.375 L 230.588 398.375 C 288.462 398.375 335.378 349.665 335.378 289.578 L 335.378 144.517 C 335.378 84.431 288.462 35.721 230.588 35.721 Z"/>
  <path style="fill: rgb(248, 248, 249);" d="M 264.413 259.963 C 264.413 229.111 228.454 17.898 211.896 17.898 C 195.337 17.898 159.38 229.111 159.38 259.963 C 159.38 290.815 184.461 315.825 211.896 315.825 C 239.331 315.825 264.413 290.816 264.413 259.963 Z"/>
  <path style="fill: rgb(88, 87, 93);" d="M 202.763 362.111 L 176.565 362.111 C 176.565 355.179 174.455 348.598 170.461 343.079 L 191.406 326.742 C 198.835 337.01 202.763 349.24 202.763 362.111 Z"/>
  <path style="fill: rgb(69, 68, 73);" d="M 243.686 362.111 L 217.489 362.111 C 217.489 349.24 221.416 337.009 228.845 326.742 L 249.791 343.079 C 245.796 348.598 243.686 355.179 243.686 362.111 Z"/>
  <path style="fill: rgb(88, 87, 93);" d="M 132.904 330.377 L 132.901 330.377 C 123.273 330.377 115.439 322.243 115.439 312.245 C 115.443 302.245 123.278 294.112 132.904 294.112 C 142.534 294.112 150.369 302.246 150.369 312.245 C 150.369 322.243 142.534 330.377 132.904 330.377 Z"/>
  <path style="fill: rgb(69, 68, 73);" d="M 287.35 330.377 L 287.346 330.377 C 277.719 330.377 269.885 322.243 269.885 312.245 C 269.889 302.245 277.723 294.112 287.35 294.112 C 296.98 294.112 304.815 302.246 304.815 312.245 C 304.815 322.243 296.98 330.377 287.35 330.377 Z"/>
  <path style="fill: rgb(237, 237, 237);" d="M 210.617 18.537 L 210.617 315.185 C 242.059 315.185 270.804 290.283 270.804 259.564 C 270.804 228.844 229.594 18.537 210.617 18.537 Z"/>
  <g id="svg-1" transform="matrix(1.26305, 0, 0, 1.224719, -227.385193, 116.582359)" style="">
    <g id="SVGRepo_bgCarrier" stroke-width="0" transform="matrix(0.25, 0, 0, 0.25, 424.98877, 78.541824)"/>
    <g id="SVGRepo_tracerCarrier" stroke-linecap="round" stroke-linejoin="round" transform="matrix(0.25, 0, 0, 0.25, 424.98877, 78.541824)"/>
    <g id="SVGRepo_iconCarrier" transform="matrix(0.25, 0, 0, 0.25, 424.98877, 78.541824)">
      <path style="fill:#1c71d8;" d="M447.703,512H109.215c-7.723,0-13.984-6.262-13.984-13.984V40.094 c0-7.722,6.261-13.984,13.984-13.984h338.488c20.244,0,36.713,16.468,36.713,36.711v229.533c0,7.722-6.262,13.984-13.984,13.984 c-7.722,0-13.984-6.262-13.984-13.984V62.821c0-4.82-3.923-8.743-8.744-8.743H123.199v429.953h324.504 c4.822,0,8.744-3.923,8.744-8.744V368.701c0-7.722,6.262-13.984,13.984-13.984c7.722,0,13.984,6.262,13.984,13.984v106.586 C484.415,495.531,467.946,512,447.703,512z"/>
      <path style="fill:#99c1f1;" d="M129.546,497.929H75.274c-18.613,0-33.703-15.089-33.703-33.703V73.711 c0-18.613,15.089-33.703,33.703-33.703h54.273V497.929z"/>
      <g>
        <path style="fill:#1c71d8;" d="M129.546,511.913H75.272c-26.295,0-47.688-21.393-47.688-47.688V73.711 c0-26.295,21.392-47.688,47.688-47.688h54.274c7.723,0,13.984,6.262,13.984,13.984v457.922 C143.531,505.653,137.27,511.913,129.546,511.913z M75.272,53.992c-10.873,0-19.719,8.845-19.719,19.719v390.516 c0,10.873,8.846,19.719,19.719,19.719h40.29V53.992H75.272z"/>
        <path style="fill:#1c71d8;" d="M213.791,337.476c-1.412,2.39-3.584,3.151-5.648,3.151c-1.955,0-4.018-0.652-5.321-3.151 l-10.318-18.895v41.813c0,3.474-4.234,5.212-8.47,5.212s-8.472-1.738-8.472-5.212v-65.706c0-6.191,4.236-8.472,8.472-8.472 c6.082,0,8.688,0.652,13.141,8.472l11.186,19.549l11.186-19.549c4.453-7.82,7.059-8.472,13.141-8.472 c4.343,0,8.47,2.281,8.47,8.472v65.706c0,3.474-4.234,5.212-8.47,5.212c-4.236,0-8.472-1.738-8.472-5.212v-40.728L213.791,337.476z "/>
        <path style="fill:#1c71d8;" d="M247.458,358.655c0-0.326,0.108-0.761,0.217-1.194l20.2-66.249 c1.196-3.802,6.083-5.648,11.078-5.648c4.995,0,9.881,1.846,11.077,5.648l20.308,66.249c0.109,0.434,0.218,0.868,0.218,1.194 c0,4.018-6.191,6.95-10.86,6.95c-2.714,0-4.887-0.87-5.539-3.149l-3.693-13.576h-22.916l-3.693,13.576 c-0.652,2.279-2.823,3.149-5.539,3.149C253.649,365.605,247.458,362.672,247.458,358.655z M286.883,335.848l-7.928-29.105 l-7.929,29.105H286.883z"/>
        <path style="fill:#1c71d8;" d="M357.042,286.215c3.584,0,5.104,3.91,5.104,7.493c0,4.128-1.847,7.711-5.104,7.711h-14.987v58.973 c0,3.474-4.234,5.212-8.47,5.212c-4.236,0-8.472-1.738-8.472-5.212v-58.973h-14.988c-3.258,0-5.103-3.583-5.103-7.711 c0-3.583,1.52-7.493,5.103-7.493H357.042L357.042,286.215z"/>
        <path style="fill:#1c71d8;" d="M407.434,330.96h-21.613v29.433c0,3.474-4.236,5.212-8.472,5.212s-8.47-1.738-8.47-5.212v-69.072 c0-3.584,4.234-5.104,8.47-5.104s8.472,1.52,8.472,5.104v26.608h21.613v-26.608c0-3.584,4.236-5.104,8.472-5.104 c4.236,0,8.472,1.52,8.472,5.104v69.072c0,3.474-4.236,5.212-8.472,5.212c-4.236,0-8.472-1.738-8.472-5.212V330.96z"/>
      </g>
      <path style="fill:#99c1f1;" d="M317.075,13.984v156.097c0,3.026,3.205,4.978,5.894,3.588l41.307-21.343 c1.163-0.601,2.545-0.601,3.709,0l41.307,21.343c2.689,1.389,5.894-0.562,5.894-3.588V13.984H317.075z"/>
      <g>
        <path style="fill:#1c71d8;" d="M411.142,188.111c0,0-0.001,0-0.003,0c-2.858,0-5.72-0.698-8.273-2.018l-36.738-18.982 l-36.742,18.982c-2.551,1.319-5.412,2.017-8.272,2.017c-9.939,0-18.026-8.087-18.026-18.028V13.984 C303.089,6.262,309.351,0,317.073,0h98.109c7.722,0,13.984,6.262,13.984,13.984v156.099c0,4.945-1.956,9.553-5.511,12.975 C420.271,186.316,415.827,188.111,411.142,188.111z M331.057,27.968v125.781l26.798-13.844c5.086-2.63,11.454-2.632,16.549,0.001 l26.794,13.843V27.968H331.057z"/>
        <path style="fill:#1c71d8;" d="M378.367,251.232H224.541c-7.723,0-13.984-6.262-13.984-13.984c0-7.722,6.261-13.984,13.984-13.984 h153.826c7.722,0,13.984,6.262,13.984,13.984C392.352,244.97,386.091,251.232,378.367,251.232z"/>
      </g>
    </g>
  </g>
</svg>