<svg version="1.1" id="Layer_1" xmlns="http://www.w3.org/2000/svg" xmlns:xlink="http://www.w3.org/1999/xlink" x="0px" y="0px"
	 width="100%" viewBox="0 0 1080 1080" enable-background="new 0 0 1080 1080" xml:space="preserve">
<path fill="#000000" opacity="1.000000" stroke="none" 
	d="
M520.000000,1081.000000 
	C346.686615,1081.000000 173.873215,1081.000000 1.029916,1081.000000 
	C1.029916,721.061462 1.029916,361.122986 1.029916,1.092229 
	C360.896942,1.092229 720.793945,1.092229 1080.845459,1.092229 
	C1080.845459,360.999939 1080.845459,720.999939 1080.845459,1081.000000 
	C894.122498,1081.000000 707.311218,1081.000000 520.000000,1081.000000 
M490.106812,754.714905 
	C492.028870,756.166565 493.831879,757.819763 495.892517,759.036865 
	C508.609436,766.548523 521.200195,773.891113 536.611084,775.309692 
	C545.251953,776.105042 553.455811,775.708923 561.696533,773.700195 
	C570.804321,771.480164 578.848755,767.044006 586.741699,761.309387 
	C590.052979,764.271423 593.254700,767.367798 596.694702,770.171875 
	C610.542847,781.460144 625.115601,791.166504 643.327026,794.314026 
	C651.834106,795.784180 659.476379,794.660278 666.427551,790.032959 
	C677.859497,782.422791 684.843079,770.994873 690.978638,759.151733 
	C696.402893,748.681702 701.129944,737.850342 706.995605,727.097595 
	C710.157837,727.654114 713.350159,728.079285 716.475525,728.796387 
	C721.804321,730.019104 725.767944,728.605652 727.706604,723.589966 
	C731.703186,713.250000 733.638245,702.490906 733.030396,691.326050 
	C732.746460,686.111206 730.838257,684.076172 725.485107,684.007141 
	C721.001404,683.949341 716.517029,683.944275 712.006409,683.058289 
	C712.006470,674.502747 708.036682,667.215881 703.986938,660.181396 
	C699.401367,652.216187 693.678528,645.015991 685.007690,640.426819 
	C685.007690,640.426819 684.856384,640.003174 684.985229,639.073364 
	C684.990173,585.151611 685.021545,531.229797 684.956604,477.308136 
	C684.950439,472.231079 684.352722,467.153687 684.002869,462.078308 
	C682.968811,447.078156 678.353943,433.153656 671.487915,419.866058 
	C670.026611,417.037994 669.141663,413.912109 668.762939,411.067200 
	C675.762817,413.846252 682.912598,415.351105 690.560181,415.080139 
	C704.274475,414.594238 714.896667,408.498322 721.978760,397.193756 
	C731.758423,381.583374 729.984924,359.248230 715.782227,345.906708 
	C701.433960,332.428467 677.231812,331.108734 662.549377,344.127502 
	C651.755554,353.698273 642.109985,364.563965 631.221741,374.959778 
	C623.305359,370.968414 615.615234,366.417511 607.424255,363.105316 
	C591.661926,356.731476 575.048340,354.504150 557.773071,354.178894 
	C554.544434,346.948395 551.507385,339.624146 548.029053,332.515808 
	C545.029724,326.386292 544.807556,326.494995 540.212280,325.989288 
	C534.040894,327.386139 533.457092,333.371399 531.140808,337.653076 
	C528.196228,343.096313 526.289673,349.101135 523.016785,354.966614 
	C517.620300,355.310547 512.217163,355.572968 506.828674,356.014496 
	C493.328339,357.120667 480.267181,359.992920 468.021362,365.995544 
	C462.022278,368.936127 456.036560,371.903931 449.803711,374.242157 
	C440.737457,365.183563 431.706757,356.089020 422.596466,347.074890 
	C409.087128,333.708038 390.988495,331.111481 375.083069,339.641022 
	C360.752228,347.326141 353.831970,359.835205 353.812378,376.741302 
	C353.783356,401.735321 377.958282,419.992218 402.485107,414.110321 
	C406.695892,413.100525 410.896210,412.047058 414.954010,411.746094 
	C412.148132,417.453552 409.185333,423.090118 406.568420,428.882935 
	C400.808685,441.632721 397.426056,455.166473 397.156433,469.025665 
	C396.592804,497.997833 396.976196,526.988770 397.006073,555.972046 
	C397.028717,577.956299 397.106232,599.940552 396.976349,622.341858 
	C396.976349,622.341858 396.928070,622.795288 396.262207,623.107910 
	C394.826416,626.713745 393.390594,630.319519 391.188477,633.939941 
	C387.779205,632.607910 384.412933,631.149475 380.951050,629.972046 
	C375.004028,627.949341 372.595093,628.514893 370.554108,634.094482 
	C367.547943,642.312805 364.599152,650.726196 363.193115,659.313171 
	C361.277679,671.011230 362.944824,672.385742 375.052002,675.095337 
	C378.413849,675.847717 381.666565,677.087891 384.996490,679.020813 
	C385.654938,686.180420 385.912231,693.404480 387.050781,700.486877 
	C389.898376,718.200073 395.047882,734.864502 407.185913,748.975281 
	C415.486847,758.625244 425.743408,763.759949 437.800110,764.906494 
	C454.380310,766.483215 469.225739,760.495178 483.814240,752.066650 
	C484.225372,751.999817 484.636475,751.932983 485.723969,751.979309 
	C487.092957,752.672241 488.461945,753.365112 490.106812,754.714905 
M478.056854,837.496582 
	C477.099945,837.660950 476.091949,838.108765 475.193878,837.946777 
	C462.991547,835.746582 450.759979,833.673157 438.629303,831.122986 
	C430.636292,829.442688 422.823212,826.925293 414.877869,824.995605 
	C398.919281,821.119812 384.944916,813.664307 372.958954,802.420105 
	C361.402405,791.578918 353.421082,778.407288 347.447571,763.880798 
	C343.721283,754.819092 341.967926,745.460693 343.178833,735.675842 
	C344.397980,725.824463 345.747101,715.989197 347.013977,706.143555 
	C348.112732,697.604431 349.083832,689.047668 350.282013,680.522766 
	C351.410522,672.492798 352.823822,664.503296 353.999359,656.479492 
	C355.456970,646.530884 356.674866,636.545959 358.226685,626.612671 
	C359.672852,617.356201 361.596954,608.173340 362.989227,598.909729 
	C364.533569,588.634155 365.434174,578.257446 367.134705,568.011047 
	C368.691986,558.627747 367.989746,549.617249 365.281586,540.535828 
	C363.675079,535.148560 360.810303,530.806335 355.360870,530.183167 
	C347.726898,529.309937 339.739258,529.464355 334.941498,537.259216 
	C324.407074,554.374512 321.208344,573.788208 318.075653,593.128052 
	C316.252747,604.381592 315.245453,615.769409 313.957153,627.106628 
	C312.575470,639.265747 311.173004,651.424683 310.009796,663.605652 
	C309.138031,672.734619 308.451935,681.889526 308.000641,691.048523 
	C307.196198,707.373962 306.396057,723.706360 306.061127,740.045471 
	C305.878601,748.948120 306.326324,757.898254 307.077271,766.777344 
	C308.190399,779.938782 312.760956,792.120056 319.109222,803.604431 
	C324.389282,813.156372 331.081757,821.652649 339.834015,828.287231 
	C346.118439,833.051086 352.319214,838.080688 359.154144,841.932678 
	C377.555603,852.303162 397.687927,858.262085 418.009491,863.528259 
	C441.904999,869.720520 466.011688,874.676147 491.281128,875.843872 
	C499.984955,875.572388 508.793610,876.042664 517.364563,874.831116 
	C526.865967,873.488037 535.510132,862.584839 534.856689,853.149841 
	C534.104309,842.285828 527.967529,833.885498 519.938293,826.988037 
	C517.729248,825.090454 514.687500,823.573425 511.830872,823.118347 
	C498.021912,820.918274 487.719391,827.554688 478.056854,837.496582 
z"/>
<path fill="#C6C5CA" opacity="1.000000" stroke="none" 
	d="
M667.991150,410.923431 
	C669.141663,413.912109 670.026611,417.037994 671.487915,419.866058 
	C678.353943,433.153656 682.968811,447.078156 684.002869,462.078308 
	C684.352722,467.153687 684.950439,472.231079 684.956604,477.308136 
	C685.021545,531.229797 684.990173,585.151611 684.592407,639.442383 
	C676.955139,637.105103 669.906921,633.354553 662.418274,631.946960 
	C652.207153,630.027710 641.675354,629.458984 631.253845,629.099060 
	C616.158569,628.577576 601.038940,628.760986 586.120850,628.386719 
	C599.875916,614.955811 606.501526,598.902039 604.778015,580.071960 
	C603.527405,566.409058 601.546814,552.760376 598.971680,539.281128 
	C591.353699,499.405243 583.754211,459.514130 575.195618,419.834259 
	C570.477295,397.958435 563.848572,376.494659 558.081055,354.845123 
	C575.048340,354.504150 591.661926,356.731476 607.424255,363.105316 
	C615.615234,366.417511 623.305359,370.968414 631.745728,375.212402 
	C645.923584,384.861572 656.661316,397.194977 666.694458,410.097961 
	C666.948853,410.527527 667.498535,410.799835 668.064026,411.023376 
	C668.079895,410.974670 667.991150,410.923431 667.991150,410.923431 
z"/>
<path fill="#D8D8DA" opacity="1.000000" stroke="none" 
	d="
M397.159363,621.924805 
	C397.106232,599.940552 397.028717,577.956299 397.006073,555.972046 
	C396.976196,526.988770 396.592804,497.997833 397.156433,469.025665 
	C397.426056,455.166473 400.808685,441.632721 406.568420,428.882935 
	C409.185333,423.090118 412.148132,417.453552 414.984924,411.373901 
	C415.015808,411.001740 415.020721,411.087280 415.292114,410.979004 
	C415.713379,410.205475 415.863312,409.540222 416.168335,408.587677 
	C418.173828,406.392700 420.040039,404.500122 421.871613,402.574493 
	C427.786194,396.356079 433.581909,390.019745 439.637726,383.942383 
	C442.879883,380.688660 446.561493,377.872864 450.044800,374.859406 
	C456.036560,371.903931 462.022278,368.936127 468.021362,365.995544 
	C480.267181,359.992920 493.328339,357.120667 506.828674,356.014496 
	C512.217163,355.572968 517.620300,355.310547 523.479492,355.313843 
	C517.042847,382.354706 509.725281,408.949280 503.376678,435.773193 
	C498.294739,457.245239 494.025421,478.929352 490.062103,500.641052 
	C485.775635,524.123108 482.247742,547.743958 478.417816,571.308960 
	C476.071045,585.748047 476.948944,599.769470 483.613556,612.974731 
	C467.670593,609.665833 452.107391,606.427734 436.593933,602.966492 
	C426.898682,600.803406 417.929993,602.680115 410.238129,608.491882 
	C405.309235,612.216064 401.481018,617.396973 397.159363,621.924805 
z"/>
<path fill="#FF8B8B" opacity="1.000000" stroke="none" 
	d="
M490.833313,875.069946 
	C466.011688,874.676147 441.904999,869.720520 418.009491,863.528259 
	C397.687927,858.262085 377.555603,852.303162 359.154144,841.932678 
	C352.319214,838.080688 346.118439,833.051086 339.834015,828.287231 
	C331.081757,821.652649 324.389282,813.156372 319.109222,803.604431 
	C312.760956,792.120056 308.190399,779.938782 307.077271,766.777344 
	C306.326324,757.898254 305.878601,748.948120 306.061127,740.045471 
	C306.396057,723.706360 307.196198,707.373962 308.000641,691.048523 
	C308.451935,681.889526 309.138031,672.734619 310.009796,663.605652 
	C311.173004,651.424683 312.575470,639.265747 313.957153,627.106628 
	C315.245453,615.769409 316.252747,604.381592 318.075653,593.128052 
	C321.208344,573.788208 324.407074,554.374512 334.941498,537.259216 
	C339.739258,529.464355 347.726898,529.309937 355.360870,530.183167 
	C360.810303,530.806335 363.675079,535.148560 365.281586,540.535828 
	C367.989746,549.617249 368.691986,558.627747 367.134705,568.011047 
	C365.434174,578.257446 364.533569,588.634155 362.989227,598.909729 
	C361.596954,608.173340 359.672852,617.356201 358.226685,626.612671 
	C356.674866,636.545959 355.456970,646.530884 353.999359,656.479492 
	C352.823822,664.503296 351.410522,672.492798 350.282013,680.522766 
	C349.083832,689.047668 348.112732,697.604431 347.013977,706.143555 
	C345.747101,715.989197 344.397980,725.824463 343.178833,735.675842 
	C341.967926,745.460693 343.721283,754.819092 347.447571,763.880798 
	C353.421082,778.407288 361.402405,791.578918 372.958954,802.420105 
	C384.944916,813.664307 398.919281,821.119812 414.877869,824.995605 
	C422.823212,826.925293 430.636292,829.442688 438.629303,831.122986 
	C450.759979,833.673157 462.991547,835.746582 475.193878,837.946777 
	C476.091949,838.108765 477.099945,837.660950 478.545410,837.644409 
	C485.021515,838.494568 491.028198,839.069824 496.986328,839.967407 
	C499.101685,840.286072 501.975037,840.774902 503.000610,842.238464 
	C507.800537,849.088440 509.252899,856.751404 506.458466,864.857788 
	C503.912933,872.242004 497.749359,874.275940 490.833313,875.069946 
M359.554199,558.253845 
	C355.754791,551.827698 350.149536,548.938354 343.931274,550.200500 
	C338.387360,551.325806 333.572479,556.276733 332.898499,561.696838 
	C332.139465,567.800903 333.867920,572.896179 339.331268,576.239807 
	C344.366638,579.321594 350.852234,578.953674 355.218018,575.465454 
	C360.328705,571.382080 361.856689,565.958252 359.554199,558.253845 
z"/>
<path fill="#EDEDED" opacity="1.000000" stroke="none" 
	d="
M557.927063,354.512024 
	C563.848572,376.494659 570.477295,397.958435 575.195618,419.834259 
	C583.754211,459.514130 591.353699,499.405243 598.971680,539.281128 
	C601.546814,552.760376 603.527405,566.409058 604.778015,580.071960 
	C606.501526,598.902039 599.875916,614.955811 585.806641,628.476685 
	C584.873596,628.902771 584.445923,628.981934 583.559082,628.968994 
	C568.391846,628.567688 553.665955,628.435852 539.666260,624.205872 
	C540.343079,622.307007 540.957520,620.718384 540.958008,619.129700 
	C540.988281,521.374084 540.968262,423.618439 540.953003,325.862823 
	C544.807556,326.494995 545.029724,326.386292 548.029053,332.515808 
	C551.507385,339.624146 554.544434,346.948395 557.927063,354.512024 
z"/>
<path fill="#F8F8F9" opacity="1.000000" stroke="none" 
	d="
M540.582642,325.926056 
	C540.968262,423.618439 540.988281,521.374084 540.958008,619.129700 
	C540.957520,620.718384 540.343079,622.307007 539.286194,624.184814 
	C533.362671,623.438171 528.168518,622.399902 522.973389,621.366882 
	C510.646484,618.915771 498.319061,616.467346 485.753845,613.868164 
	C485.015289,613.462769 484.514801,613.207031 484.014313,612.951294 
	C476.948944,599.769470 476.071045,585.748047 478.417816,571.308960 
	C482.247742,547.743958 485.775635,524.123108 490.062103,500.641052 
	C494.025421,478.929352 498.294739,457.245239 503.376678,435.773193 
	C509.725281,408.949280 517.042847,382.354706 523.938843,355.262451 
	C526.289673,349.101135 528.196228,343.096313 531.140808,337.653076 
	C533.457092,333.371399 534.040894,327.386139 540.582642,325.926056 
z"/>
<path fill="#C86F6F" opacity="1.000000" stroke="none" 
	d="
M685.027527,640.876160 
	C693.678528,645.015991 699.401367,652.216187 703.986938,660.181396 
	C708.036682,667.215881 712.006470,674.502747 712.070068,683.905151 
	C712.260925,689.812317 713.166321,695.002625 712.347412,699.904785 
	C710.814026,709.084167 708.281555,718.096619 706.164734,727.178528 
	C701.129944,737.850342 696.402893,748.681702 690.978638,759.151733 
	C684.843079,770.994873 677.859497,782.422791 666.427551,790.032959 
	C659.476379,794.660278 651.834106,795.784180 643.327026,794.314026 
	C625.115601,791.166504 610.542847,781.460144 596.694702,770.171875 
	C593.254700,767.367798 590.052979,764.271423 586.274231,760.934753 
	C584.530090,759.048279 583.253418,757.536438 582.382568,755.999756 
	C588.534973,754.650208 594.328735,753.492798 599.998413,751.895203 
	C601.621826,751.437805 602.886292,749.706604 604.639160,748.678345 
	C611.352722,754.298523 618.607361,758.100952 626.747070,760.384888 
	C645.694580,765.701172 659.218628,761.127502 669.401855,744.233887 
	C675.713806,733.762573 681.073547,722.593994 685.715759,711.269043 
	C692.402466,694.956360 693.683289,678.661011 681.326294,663.757385 
	C682.741211,655.963379 683.884399,648.419800 685.027527,640.876160 
z"/>
<path fill="#C6C5CA" opacity="1.000000" stroke="none" 
	d="
M449.924255,374.550781 
	C446.561493,377.872864 442.879883,380.688660 439.637726,383.942383 
	C433.581909,390.019745 427.786194,396.356079 421.871613,402.574493 
	C420.040039,404.500122 418.173828,406.392700 415.800232,408.762695 
	C415.191559,409.845734 415.106140,410.466522 415.020721,411.087280 
	C415.020721,411.087280 415.015808,411.001740 415.058594,411.007751 
	C410.896210,412.047058 406.695892,413.100525 402.485107,414.110321 
	C377.958282,419.992218 353.783356,401.735321 353.812378,376.741302 
	C353.831970,359.835205 360.752228,347.326141 375.083069,339.641022 
	C390.988495,331.111481 409.087128,333.708038 422.596466,347.074890 
	C431.706757,356.089020 440.737457,365.183563 449.924255,374.550781 
z"/>
<path fill="#ADABB1" opacity="1.000000" stroke="none" 
	d="
M666.989624,409.940704 
	C656.661316,397.194977 645.923584,384.861572 632.111206,375.158813 
	C642.109985,364.563965 651.755554,353.698273 662.549377,344.127502 
	C677.231812,331.108734 701.433960,332.428467 715.782227,345.906708 
	C729.984924,359.248230 731.758423,381.583374 721.978760,397.193756 
	C714.896667,408.498322 704.274475,414.594238 690.560181,415.080139 
	C682.912598,415.351105 675.762817,413.846252 668.377075,410.995300 
	C667.991150,410.923431 668.079895,410.974670 667.983521,410.754913 
	C667.588013,410.337006 667.288818,410.138855 666.989624,409.940704 
z"/>
<path fill="#C86F6F" opacity="1.000000" stroke="none" 
	d="
M391.954803,633.925354 
	C393.390594,630.319519 394.826416,626.713745 396.631470,623.432312 
	C396.410400,641.907471 397.220612,659.908813 403.962402,677.061035 
	C405.723602,681.541870 408.472351,685.634521 410.876526,690.231079 
	C411.629333,693.043884 412.273193,695.531006 412.927795,698.402222 
	C414.173340,702.033997 415.163513,705.401855 416.688293,708.507141 
	C421.448364,718.201172 427.998260,726.071533 439.229309,729.303833 
	C441.358032,730.102905 443.230103,730.688293 445.179443,731.639160 
	C445.971771,732.880066 446.530884,733.982788 447.425568,734.596069 
	C458.481781,742.174561 470.150177,748.525391 483.185638,752.062561 
	C469.225739,760.495178 454.380310,766.483215 437.800110,764.906494 
	C425.743408,763.759949 415.486847,758.625244 407.185913,748.975281 
	C395.047882,734.864502 389.898376,718.200073 387.050781,700.486877 
	C385.912231,693.404480 385.654938,686.180420 385.001831,678.088379 
	C384.609863,662.309753 386.088348,647.764954 391.954803,633.925354 
z"/>
<path fill="#EE797A" opacity="1.000000" stroke="none" 
	d="
M489.830963,754.057983 
	C488.461945,753.365112 487.092957,752.672241 485.443359,751.594482 
	C490.175079,747.437378 495.519073,744.027649 500.125885,739.812256 
	C508.040314,732.570068 515.494812,724.825195 523.509521,717.203186 
	C526.245972,716.294861 528.615112,715.474670 531.037720,714.977661 
	C531.634644,715.407776 532.178223,715.514648 532.721802,715.621460 
	C532.943726,710.271545 536.979370,710.833740 540.320923,711.098083 
	C543.409241,711.342529 546.434021,712.388245 549.517456,713.414185 
	C549.639282,714.182739 549.730530,714.618164 549.648682,715.286255 
	C550.369263,715.902344 551.262939,716.285706 552.492798,716.736572 
	C553.494324,716.967224 554.159729,717.130310 554.911194,717.621521 
	C561.683899,728.000000 568.365295,738.053772 575.060547,748.098328 
	C576.775330,750.670837 578.534180,753.213928 579.850647,755.890747 
	C577.816101,756.342102 576.192932,757.006531 574.592896,756.954773 
	C546.337280,756.040222 517.928345,759.530579 489.830963,754.057983 
z"/>
<path fill="#B65F60" opacity="1.000000" stroke="none" 
	d="
M410.767548,689.905457 
	C408.472351,685.634521 405.723602,681.541870 403.962402,677.061035 
	C397.220612,659.908813 396.410400,641.907471 396.964386,623.276001 
	C396.928070,622.795288 396.976349,622.341858 397.067871,622.133362 
	C401.481018,617.396973 405.309235,612.216064 410.238129,608.491882 
	C417.929993,602.680115 426.898682,600.803406 436.593933,602.966492 
	C452.107391,606.427734 467.670593,609.665833 483.613556,612.974731 
	C484.514801,613.207031 485.015289,613.462769 485.765747,614.232788 
	C489.677856,619.819519 493.339996,624.891968 496.585266,629.985168 
	C484.437317,627.694519 472.596954,625.827209 460.999451,622.973206 
	C441.027161,618.058289 425.030396,628.461243 417.054443,644.677124 
	C409.986664,659.046570 408.592468,674.235535 410.767548,689.905457 
z"/>
<path fill="#AF5658" opacity="1.000000" stroke="none" 
	d="
M685.017578,640.651489 
	C683.884399,648.419800 682.741211,655.963379 681.050659,663.564941 
	C669.724854,653.237854 656.873962,647.154785 641.678345,645.001038 
	C640.743835,644.762817 640.208069,644.634644 639.540649,644.429932 
	C639.232788,644.247620 639.073425,644.120544 638.980591,643.974487 
	C639.030273,643.976685 639.031372,644.075989 638.792175,643.793823 
	C633.537109,640.871399 628.436462,640.135925 622.806396,642.889648 
	C621.923767,643.006226 621.418091,643.061462 620.460999,643.066162 
	C602.634094,642.430725 585.258606,641.845886 568.090820,640.970398 
	C573.538330,636.806885 578.778259,632.934021 584.018188,629.061096 
	C584.445923,628.981934 584.873596,628.902771 585.615479,628.733643 
	C601.038940,628.760986 616.158569,628.577576 631.253845,629.099060 
	C641.675354,629.458984 652.207153,630.027710 662.418274,631.946960 
	C669.906921,633.354553 676.955139,637.105103 684.528015,639.907349 
	C684.856384,640.003174 685.007690,640.426819 685.017578,640.651489 
z"/>
<path fill="#81A6B0" opacity="1.000000" stroke="none" 
	d="
M491.057220,875.456909 
	C497.749359,874.275940 503.912933,872.242004 506.458466,864.857788 
	C509.252899,856.751404 507.800537,849.088440 503.000610,842.238464 
	C501.975037,840.774902 499.101685,840.286072 496.986328,839.967407 
	C491.028198,839.069824 485.021515,838.494568 478.879211,837.428223 
	C487.719391,827.554688 498.021912,820.918274 511.830872,823.118347 
	C514.687500,823.573425 517.729248,825.090454 519.938293,826.988037 
	C527.967529,833.885498 534.104309,842.285828 534.856689,853.149841 
	C535.510132,862.584839 526.865967,873.488037 517.364563,874.831116 
	C508.793610,876.042664 499.984955,875.572388 491.057220,875.456909 
z"/>
<path fill="#FF8B8B" opacity="1.000000" stroke="none" 
	d="
M489.968872,754.386475 
	C517.928345,759.530579 546.337280,756.040222 574.592896,756.954773 
	C576.192932,757.006531 577.816101,756.342102 580.132812,755.929077 
	C581.216980,755.906311 581.596863,755.965454 581.976746,756.024597 
	C583.253418,757.536438 584.530090,759.048279 585.958252,760.857788 
	C578.848755,767.044006 570.804321,771.480164 561.696533,773.700195 
	C553.455811,775.708923 545.251953,776.105042 536.611084,775.309692 
	C521.200195,773.891113 508.609436,766.548523 495.892517,759.036865 
	C493.831879,757.819763 492.028870,756.166565 489.968872,754.386475 
z"/>
<path fill="#B65F60" opacity="1.000000" stroke="none" 
	d="
M523.142334,717.291321 
	C515.494812,724.825195 508.040314,732.570068 500.125885,739.812256 
	C495.519073,744.027649 490.175079,747.437378 485.105194,751.537903 
	C484.636475,751.932983 484.225372,751.999817 483.499939,752.064575 
	C470.150177,748.525391 458.481781,742.174561 447.425568,734.596069 
	C446.530884,733.982788 445.971771,732.880066 445.606689,731.739319 
	C456.037231,734.153931 466.168182,733.753784 476.008240,730.813171 
	C485.545593,727.963013 494.787689,724.165283 502.495483,717.052124 
	C503.496338,716.695618 504.203888,716.370544 505.238953,716.309509 
	C511.425110,716.812805 517.283691,717.052063 523.142334,717.291321 
z"/>
<path fill="#FF8B8B" opacity="1.000000" stroke="none" 
	d="
M391.571655,633.932617 
	C386.088348,647.764954 384.609863,662.309753 384.988281,677.630127 
	C381.666565,677.087891 378.413849,675.847717 375.052002,675.095337 
	C362.944824,672.385742 361.277679,671.011230 363.193115,659.313171 
	C364.599152,650.726196 367.547943,642.312805 370.554108,634.094482 
	C372.595093,628.514893 375.004028,627.949341 380.951050,629.972046 
	C384.412933,631.149475 387.779205,632.607910 391.571655,633.932617 
z"/>
<path fill="#FF8B8B" opacity="1.000000" stroke="none" 
	d="
M706.580200,727.138062 
	C708.281555,718.096619 710.814026,709.084167 712.347412,699.904785 
	C713.166321,695.002625 712.260925,689.812317 712.083374,684.333984 
	C716.517029,683.944275 721.001404,683.949341 725.485107,684.007141 
	C730.838257,684.076172 732.746460,686.111206 733.030396,691.326050 
	C733.638245,702.490906 731.703186,713.250000 727.706604,723.589966 
	C725.767944,728.605652 721.804321,730.019104 716.475525,728.796387 
	C713.350159,728.079285 710.157837,727.654114 706.580200,727.138062 
z"/>
<path fill="#000000" opacity="1.000000" stroke="none" 
	d="
M666.694458,410.097961 
	C667.288818,410.138855 667.588013,410.337006 667.967651,410.803650 
	C667.498535,410.799835 666.948853,410.527527 666.694458,410.097961 
z"/>
<path fill="#000000" opacity="1.000000" stroke="none" 
	d="
M415.292114,410.979004 
	C415.106140,410.466522 415.191559,409.845734 415.645081,409.049957 
	C415.863312,409.540222 415.713379,410.205475 415.292114,410.979004 
z"/>
<path fill="#EDEDED" opacity="1.000000" stroke="none" 
	d="
M359.709473,558.612427 
	C361.856689,565.958252 360.328705,571.382080 355.218018,575.465454 
	C350.852234,578.953674 344.366638,579.321594 339.331268,576.239807 
	C333.867920,572.896179 332.139465,567.800903 332.898499,561.696838 
	C333.572479,556.276733 338.387360,551.325806 343.931274,550.200500 
	C350.149536,548.938354 355.754791,551.827698 359.709473,558.612427 
z"/>
<path fill="#C86F6F" opacity="1.000000" stroke="none" 
	d="
M583.559082,628.968994 
	C578.778259,632.934021 573.538330,636.806885 567.682739,641.015137 
	C565.696777,641.309937 564.326477,641.269409 562.513428,641.156799 
	C556.986450,640.542542 551.860962,640.248901 546.825806,639.411438 
	C531.845154,636.919617 516.900085,634.214050 501.668549,631.408264 
	C499.931396,630.804504 498.466766,630.384521 497.002136,629.964478 
	C493.339996,624.891968 489.677856,619.819519 486.003784,614.382446 
	C498.319061,616.467346 510.646484,618.915771 522.973389,621.366882 
	C528.168518,622.399902 533.362671,623.438171 538.937317,624.494995 
	C553.665955,628.435852 568.391846,628.567688 583.559082,628.968994 
z"/>
<path fill="#D7E1EA" opacity="1.000000" stroke="none" 
	d="
M562.956116,641.228882 
	C564.326477,641.269409 565.696777,641.309937 567.475159,641.305786 
	C585.258606,641.845886 602.634094,642.430725 620.296143,643.343384 
	C619.911743,644.155518 619.237183,644.635132 618.570068,645.124756 
	C611.042236,650.650452 607.864746,659.687927 610.707642,667.482239 
	C613.886597,676.197937 622.382996,682.370361 630.330383,681.737671 
	C640.244385,680.948425 647.072510,675.130432 649.386292,665.613464 
	C651.443237,657.152893 647.624634,650.835449 642.077087,645.111084 
	C656.873962,647.154785 669.724854,653.237854 680.778931,663.815308 
	C693.683289,678.661011 692.402466,694.956360 685.715759,711.269043 
	C681.073547,722.593994 675.713806,733.762573 669.401855,744.233887 
	C659.218628,761.127502 645.694580,765.701172 626.747070,760.384888 
	C618.607361,758.100952 611.352722,754.298523 604.421143,748.435547 
	C592.872803,737.725708 581.866333,727.377502 571.312378,717.010620 
	C574.549927,716.146667 578.586304,719.047485 579.961914,713.913269 
	C581.361816,708.688232 583.258728,703.598022 584.781494,698.402893 
	C585.141602,697.174072 585.442627,695.043457 584.809937,694.543518 
	C577.585327,688.833618 570.174500,683.359375 561.575073,676.890869 
	C558.092773,684.859253 555.009705,691.914185 551.540283,698.961426 
	C547.768372,698.244873 544.382812,697.536072 540.997803,696.369507 
	C540.998047,679.604248 540.997803,663.296936 541.414429,646.970581 
	C544.416382,646.627441 547.098572,646.633118 549.565674,645.907654 
	C554.096008,644.575317 558.499695,642.812317 562.956116,641.228882 
z"/>
<path fill="#AF5658" opacity="1.000000" stroke="none" 
	d="
M570.859863,717.029236 
	C581.866333,727.377502 592.872803,737.725708 604.097351,748.316650 
	C602.886292,749.706604 601.621826,751.437805 599.998413,751.895203 
	C594.328735,753.492798 588.534973,754.650208 582.382568,755.999756 
	C581.596863,755.965454 581.216980,755.906311 580.554932,755.808838 
	C578.534180,753.213928 576.775330,750.670837 575.060547,748.098328 
	C568.365295,738.053772 561.683899,728.000000 555.383606,717.525513 
	C560.459534,717.051941 565.149231,717.002502 570.093323,716.982666 
	C570.518494,717.017822 570.689148,717.023499 570.859863,717.029236 
z"/>
<path fill="#D9E3EC" opacity="1.000000" stroke="none" 
	d="
M540.997559,646.989563 
	C540.997803,663.296936 540.998047,679.604248 540.595215,696.445557 
	C536.768860,697.037903 533.345520,697.096375 529.708008,697.076172 
	C529.493774,696.997498 529.061707,696.850525 529.043091,696.479553 
	C526.908142,689.491272 524.106262,683.260437 519.185364,677.726562 
	C511.777557,683.311829 504.698273,688.497498 497.866333,693.990784 
	C497.002197,694.685669 497.002930,697.097229 497.343506,698.538452 
	C498.812653,704.755676 500.557648,710.907776 502.202209,717.083557 
	C494.787689,724.165283 485.545593,727.963013 476.008240,730.813171 
	C466.168182,733.753784 456.037231,734.153931 445.529419,731.373779 
	C443.230103,730.688293 441.358032,730.102905 439.174805,728.967407 
	C433.913544,723.115112 428.790192,717.961853 424.066803,712.464905 
	C420.107849,707.857544 416.615814,702.848999 412.917023,698.018127 
	C412.273193,695.531006 411.629333,693.043884 410.876526,690.231079 
	C408.592468,674.235535 409.986664,659.046570 417.054443,644.677124 
	C425.030396,628.461243 441.027161,618.058289 460.999451,622.973206 
	C472.596954,625.827209 484.437317,627.694519 496.585266,629.985168 
	C498.466766,630.384521 499.931396,630.804504 501.730103,631.781982 
	C504.314697,634.194885 506.377655,636.361389 508.848663,637.851013 
	C518.709961,643.796265 529.750000,645.804871 540.997559,646.989563 
M432.704437,666.460388 
	C435.824249,677.586792 445.495941,682.384705 453.538788,681.532104 
	C464.048370,680.418030 471.261719,672.928040 472.055511,663.726501 
	C472.814667,654.925903 469.190857,648.357971 461.852020,644.118591 
	C455.015869,640.169617 447.818390,640.333679 441.143127,644.927917 
	C433.854889,649.944214 430.895294,656.896057 432.704437,666.460388 
z"/>
<path fill="#EDEDED" opacity="1.000000" stroke="none" 
	d="
M412.927795,698.402222 
	C416.615814,702.848999 420.107849,707.857544 424.066803,712.464905 
	C428.790192,717.961853 433.913544,723.115112 438.918152,728.753662 
	C427.998260,726.071533 421.448364,718.201172 416.688293,708.507141 
	C415.163513,705.401855 414.173340,702.033997 412.927795,698.402222 
z"/>
<path fill="#81292B" opacity="1.000000" stroke="none" 
	d="
M529.061707,696.850525 
	C529.061707,696.850525 529.493774,696.997498 529.718018,697.481689 
	C530.289612,703.528748 530.636963,709.091553 530.984314,714.654419 
	C528.615112,715.474670 526.245972,716.294861 523.509521,717.203186 
	C517.283691,717.052063 511.425110,716.812805 505.477509,716.064331 
	C507.302307,713.963745 509.178528,712.324341 511.136932,710.789917 
	C517.094788,706.121643 523.084412,701.494019 529.061707,696.850525 
z"/>
<path fill="#AF5658" opacity="1.000000" stroke="none" 
	d="
M531.037720,714.977661 
	C530.636963,709.091553 530.289612,703.528748 529.932251,697.560364 
	C533.345520,697.096375 536.768860,697.037903 540.594727,696.903381 
	C544.382812,697.536072 547.768372,698.244873 551.585022,699.169983 
	C552.016174,699.386292 552.122192,699.799683 551.854614,700.100708 
	C550.886963,704.628174 550.186890,708.854614 549.486816,713.081055 
	C546.434021,712.388245 543.409241,711.342529 540.320923,711.098083 
	C536.979370,710.833740 532.943726,710.271545 532.721802,715.621460 
	C532.178223,715.514648 531.634644,715.407776 531.037720,714.977661 
z"/>
<path fill="#81292B" opacity="1.000000" stroke="none" 
	d="
M549.517456,713.414185 
	C550.186890,708.854614 550.886963,704.628174 552.195801,700.168091 
	C558.482727,705.607361 564.160767,711.280212 569.838867,716.953064 
	C565.149231,717.002502 560.459534,717.051941 555.297485,717.197388 
	C554.159729,717.130310 553.494324,716.967224 552.367065,716.464111 
	C551.210632,715.767273 550.516235,715.410400 549.821777,715.053528 
	C549.730530,714.618164 549.639282,714.182739 549.517456,713.414185 
z"/>
<path fill="#AF5658" opacity="1.000000" stroke="none" 
	d="
M549.648682,715.286255 
	C550.516235,715.410400 551.210632,715.767273 552.030884,716.396545 
	C551.262939,716.285706 550.369263,715.902344 549.648682,715.286255 
z"/>
<path fill="#9AA4AE" opacity="1.000000" stroke="none" 
	d="
M641.678345,645.001038 
	C647.624634,650.835449 651.443237,657.152893 649.386292,665.613464 
	C647.072510,675.130432 640.244385,680.948425 630.330383,681.737671 
	C622.382996,682.370361 613.886597,676.197937 610.707642,667.482239 
	C607.864746,659.687927 611.042236,650.650452 618.570068,645.124756 
	C619.237183,644.635132 619.911743,644.155518 620.747620,643.393982 
	C621.418091,643.061462 621.923767,643.006226 623.205017,642.964355 
	C628.997559,643.343811 634.014465,643.709900 639.031372,644.075989 
	C639.031372,644.075989 639.030273,643.976685 639.052490,644.126343 
	C639.232239,644.460938 639.431396,644.537720 639.672241,644.506409 
	C640.208069,644.634644 640.743835,644.762817 641.678345,645.001038 
z"/>
<path fill="#81292B" opacity="1.000000" stroke="none" 
	d="
M638.792175,643.793823 
	C634.014465,643.709900 628.997559,643.343811 623.582031,642.903076 
	C628.436462,640.135925 633.537109,640.871399 638.792175,643.793823 
z"/>
<path fill="#81292B" opacity="1.000000" stroke="none" 
	d="
M639.540649,644.429932 
	C639.431396,644.537720 639.232239,644.460938 639.002808,644.124146 
	C639.073425,644.120544 639.232788,644.247620 639.540649,644.429932 
z"/>
<path fill="#A2ADB7" opacity="1.000000" stroke="none" 
	d="
M529.043091,696.479553 
	C523.084412,701.494019 517.094788,706.121643 511.136932,710.789917 
	C509.178528,712.324341 507.302307,713.963745 505.149963,715.800293 
	C504.203888,716.370544 503.496338,716.695618 502.495483,717.052124 
	C500.557648,710.907776 498.812653,704.755676 497.343506,698.538452 
	C497.002930,697.097229 497.002197,694.685669 497.866333,693.990784 
	C504.698273,688.497498 511.777557,683.311829 519.185364,677.726562 
	C524.106262,683.260437 526.908142,689.491272 529.043091,696.479553 
z"/>
<path fill="#EDEDED" opacity="1.000000" stroke="none" 
	d="
M541.414429,646.970581 
	C529.750000,645.804871 518.709961,643.796265 508.848663,637.851013 
	C506.377655,636.361389 504.314697,634.194885 502.002625,631.965698 
	C516.900085,634.214050 531.845154,636.919617 546.825806,639.411438 
	C551.860962,640.248901 556.986450,640.542542 562.513428,641.156860 
	C558.499695,642.812317 554.096008,644.575317 549.565674,645.907654 
	C547.098572,646.633118 544.416382,646.627441 541.414429,646.970581 
z"/>
<path fill="#9AA4AE" opacity="1.000000" stroke="none" 
	d="
M570.093323,716.982666 
	C564.160767,711.280212 558.482727,705.607361 552.463379,699.867065 
	C552.122192,699.799683 552.016174,699.386292 551.971436,699.177734 
	C555.009705,691.914185 558.092773,684.859253 561.575073,676.890869 
	C570.174500,683.359375 577.585327,688.833618 584.809937,694.543518 
	C585.442627,695.043457 585.141602,697.174072 584.781494,698.402893 
	C583.258728,703.598022 581.361816,708.688232 579.961914,713.913269 
	C578.586304,719.047485 574.549927,716.146667 571.312378,717.010620 
	C570.689148,717.023499 570.518494,717.017822 570.093323,716.982666 
z"/>
<path fill="#A2ADB7" opacity="1.000000" stroke="none" 
	d="
M432.573059,666.068848 
	C430.895294,656.896057 433.854889,649.944214 441.143127,644.927917 
	C447.818390,640.333679 455.015869,640.169617 461.852020,644.118591 
	C469.190857,648.357971 472.814667,654.925903 472.055511,663.726501 
	C471.261719,672.928040 464.048370,680.418030 453.538788,681.532104 
	C445.495941,682.384705 435.824249,677.586792 432.573059,666.068848 
z"/>
</svg>