<?xml version="1.0" encoding="utf-8"?>
<svg xmlns="http://www.w3.org/2000/svg" viewBox="0 0 500 500">
  <g id="group-1" stroke-width="0" transform="matrix(4.489552, 0, 0, 5.067817, 536.666016, 249.860168)" style=""/>
  <g id="group-2" stroke-linecap="round" stroke-linejoin="round" transform="matrix(4.489552, 0, 0, 5.067817, 536.666016, 249.860168)" style=""/>
  <g id="group-4" stroke-width="0" transform="matrix(1.93633, 0, 0, 2.073658, 324.53183, 197.815231)" style=""/>
  <g id="group-5" stroke-linecap="round" stroke-linejoin="round" transform="matrix(1.93633, 0, 0, 2.073658, 324.53183, 197.815231)" style=""/>
  <g id="group-3" stroke-width="0" transform="matrix(1, 0, 0, 1, 48.626717, 335.143585)"/>
  <g id="group-6" stroke-linecap="round" stroke-linejoin="round" transform="matrix(1, 0, 0, 1, 48.626717, 335.143585)"/>
  <g id="svg-1" transform="matrix(0.865799, 0, 0, 0.828096, 186.105469, -60.694195)" style="">
    <g id="group-7" stroke-width="0" transform="matrix(1, 0, 0, 1, -178.596756, 133.511978)"/>
    <g id="group-8" stroke-linecap="round" stroke-linejoin="round" transform="matrix(1, 0, 0, 1, -178.596756, 133.511978)"/>
    <g id="group-9" transform="matrix(1, 0, 0, 1, -178.596756, 133.511978)">
      <g>
        <g>
          <path d="M304.002,322.529H26.981V91.202h222.465l20.376-24.48H14.741c-6.76,0-12.24,5.48-12.24,12.24v255.807 c0,6.76,5.48,12.24,12.24,12.24h289.269L304.002,322.529z"/>
        </g>
      </g>
      <g/>
      <g>
        <g/>
      </g>
      <g>
        <g>
          <path d="M127.186,212.896l-11.916-16.423l11.116-15.421c0.501-0.801,0.801-1.402,0.801-2.103c0-3.004-5.408-6.51-8.511-6.51 c-0.901,0-2.303,0.401-3.004,1.502l-9.213,14.521l-9.112-14.621c-0.801-1.302-2.303-1.402-2.904-1.402 c-3.405,0-8.613,3.505-8.613,6.51c0,0.801,0.501,1.703,0.801,2.103l11.015,15.321l-11.817,16.524 c-0.502,0.6-0.802,1.401-0.802,2.202c0,3.004,5.508,6.409,8.211,6.409c1.001,0,2.504-0.401,3.205-1.402l10.015-15.221 l10.115,15.221c0.701,1.001,2.003,1.402,3.004,1.402c3.405,0,8.412-3.605,8.412-6.409 C127.987,214.198,127.586,213.297,127.186,212.896z"/>
        </g>
      </g>
      <g>
        <g>
          <path d="M168.144,191.166h-10.616V180.55c0-2.103-2.103-4.106-5.308-4.106c-3.004,0-5.408,2.003-5.408,4.106v10.615h-10.715 c-2.404,0-4.006,2.404-4.006,5.408c0,3.205,1.602,5.308,4.006,5.308h10.715v10.714c0,2.404,2.404,4.006,5.408,4.006 c3.205,0,5.308-1.602,5.308-4.006v-10.714h10.616c2.103,0,4.206-2.103,4.206-5.308 C172.35,193.569,170.247,191.166,168.144,191.166z"/>
        </g>
      </g>
      <g>
        <g>
          <path d="M212.507,172.338c-1.402,0-2.904,0.601-3.405,2.203l-9.713,29.943l-12.018-29.943c-0.501-1.602-2.003-2.203-3.705-2.203 c-3.305,0-8.613,2.804-8.613,6.209c0,0.601,0.2,1.202,0.401,1.702l17.224,36.853c-0.7,12.016-9.913,14.72-14.32,14.72 c-2.404,0-3.305,2.504-3.305,5.408c0,4.807,2.604,5.508,5.909,5.508c17.925,0,20.729-13.119,25.436-25.136l14.62-37.353 c0.2-0.501,0.3-1.102,0.3-1.502C221.319,175.142,215.61,172.338,212.507,172.338z"/>
        </g>
      </g>
      <g>
        <g>
          <path d="M257.272,200.779h-25.837c-2.404,0-4.006,2.404-4.006,5.408c0,3.205,1.602,5.308,4.006,5.308h25.837 c2.103,0,4.206-2.103,4.206-5.308C261.478,203.182,259.375,200.779,257.272,200.779z"/>
        </g>
      </g>
      <g>
        <g>
          <path d="M257.272,180.45h-25.837c-2.404,0-4.006,2.404-4.006,5.408c0,3.205,1.602,5.308,4.006,5.308h25.837 c2.103,0,4.206-2.103,4.206-5.308C261.478,182.853,259.375,180.45,257.272,180.45z"/>
        </g>
      </g>
    </g>
  </g>
  <g id="svg-2" transform="matrix(0.230257, 0, 0, 0.220431, 340.186096, 201.237701)" style="">
    <g id="group-16" stroke-width="0" transform="matrix(1, 0, 0, 1, 98.658813, -34.107662)"/>
    <g id="group-17" stroke-linecap="round" stroke-linejoin="round" transform="matrix(1, 0, 0, 1, 98.658813, -34.107662)"/>
    <g id="group-18" transform="matrix(1, 0, 0, 1, 98.658813, -34.107662)">
      <path style="fill:#EAC6BB;" d="M490.13,282.993c-5.969-46.437-17.906-115.528-40.938-181.012c-1.578-4.484-5.938-7.382-10.672-7.109 l-73.295,4.195c-5.438,0.305-9.766,4.671-10.031,10.117c-4.562,91.318-3.828,142.466-2.375,169.527 c-20.702-14.304-56.561-32.054-106.873-32.054c-27.062,0-55.389,5.227-84.311,15.562c-5.047-7.266-14.015-18.5-27.5-29.672 c-20.64-17.077-56.42-37.476-109.248-36.913c-5.843,0.062-10.546,4.82-10.546,10.664V501.33c0,4.156,2.438,7.938,6.219,9.688 c1.421,0.656,2.937,0.969,4.453,0.969c2.5,0,4.984-0.875,6.953-2.578l92.873-79.92c41.015,29.343,92.357,44.811,149.122,44.811 h0.031c46.266,0,94.748-10.483,136.466-29.529c41.077-18.75,71.593-43.719,85.904-70.327c0.891-1.641,1.328-3.484,1.281-5.359 C497.598,367.647,496.582,333.273,490.13,282.993z"/>
      <g style="opacity:0.2;">
        <path style="fill:#FFFFFF;" d="M24.889,216.972c52.827-0.562,88.607,19.827,109.248,36.913c13.484,11.172,22.453,22.39,27.5,29.671 c28.921-10.344,57.249-15.569,84.311-15.569c50.312,0,86.17,17.757,106.873,32.038c-0.312-6.031-0.609-13.266-0.812-21.875 c-20.827-14.194-56.389-31.491-106.06-31.491c-27.062,0-55.389,5.227-84.311,15.562c-5.047-7.266-14.015-18.5-27.5-29.672 c-20.64-17.077-56.42-37.476-109.248-36.913c-5.843,0.062-10.546,4.82-10.546,10.664v21.335 C14.343,221.791,19.046,217.034,24.889,216.972z"/>
      </g>
      <path style="fill:#DBAFA5;" d="M25.014,511.988c-3,0-5.984-1.25-8.093-3.719c-3.844-4.453-3.328-11.188,1.141-15.031 l128.122-110.247c4.468-3.844,11.203-3.344,15.046,1.125c3.844,4.468,3.344,11.202-1.125,15.03L31.967,509.41 C29.952,511.144,27.483,511.988,25.014,511.988z"/>
      <path style="fill:#ED5564;" d="M449.192,101.981c-1.578-4.484-5.938-7.382-10.672-7.109l-73.295,4.195 c-5.438,0.305-9.766,4.671-10.031,10.117c-1.094,21.727-1.875,41.179-2.422,58.577c12.781,3.219,26.391,4.445,39.75,4.445 c31.28,0,61.029-6.734,74.701-10.336C462.145,142.059,456.177,121.856,449.192,101.981z"/>
      <path style="fill:#EAC6BB;" d="M449.739,104.505c-0.047-0.578-1.391-14.257-5.078-31.03c-5.125-23.273-12.125-40.616-20.796-51.546 c-1.266-1.602-2.844-3.094-10.375-6.539c-3.484-1.585-9.202-4.007-16.765-6.5C384.475,4.835,365.569,0,345.131,0 c-15.015,0-28.795,2.602-40.967,7.742c-24.625,10.382-42.375,39.616-36.547,60.155c2.344,8.234,7.219,13.227,12.203,16.086 c0,0.336,0,0.68,0,1.023c0.234,9.789,4.828,17.351,12.578,20.733c3.703,1.617,7.922,2.438,12.547,2.438 c2.641,0,5.203-0.273,7.547-0.664c3.531,7.617,9.968,15.328,20.671,17.797c1.734,0.398,3.594,0.602,5.547,0.602 c8.28,0,18.187-8.328,24.905-11.547c6.516,5.727,16.844,15.617,32.422,15.617c0.969,0,1.953-0.016,2.953-0.062 c30.857-1.234,45.967-15.188,47.592-16.773C448.895,110.888,450.052,107.716,449.739,104.505z"/>
      <path style="fill:#DBAFA5;" d="M363.616,114.364c-6.719,3.219-16.625,0.875-24.905,0.875c-1.953,0-3.812-0.203-5.547-0.602 c-10.703-2.469-17.14-10.172-20.671-17.789c-2.344,0.391-4.906,0.656-7.547,0.656c-4.625,0-8.844-0.812-12.547-2.43 c-7.75-3.383-12.344-10.945-12.578-20.742c0-0.344,0-0.68,0-1.016c-4.984-2.859-9.859-7.852-12.203-16.094 c-0.297-1.039-0.516-2.109-0.688-3.195c-0.703,4.835-0.531,9.539,0.688,13.867c2.344,8.234,7.219,13.227,12.203,16.086 c0,0.336,0,0.68,0,1.023c0.234,9.789,4.828,17.351,12.578,20.733c3.703,1.617,7.922,2.438,12.547,2.438 c2.641,0,5.203-0.273,7.547-0.664c3.531,7.617,9.968,15.328,20.671,17.797c1.734,0.398,3.594,0.602,5.547,0.602 C346.991,125.911,358.147,123.864,363.616,114.364z"/>
    </g>
  </g>
  <g id="Layer_1" transform="matrix(0.350078, 0, 0, 0.314572, 231.099731, 184.729736)" style="">
    <g id="SVGRepo_bgCarrier" stroke-width="0" transform="matrix(1, 0, 0, 1, 66.097313, -106.81147)"/>
    <g id="SVGRepo_tracerCarrier" stroke-linecap="round" stroke-linejoin="round" transform="matrix(1, 0, 0, 1, 66.097313, -106.81147)"/>
    <g id="SVGRepo_iconCarrier" transform="matrix(1, 0, 0, 1, 66.097313, -106.81147)">
      <path style="fill:#85878D;" d="M53.769,4.89C47.247-1.632,36.681-1.626,30.16,4.884C14.388,20.65,5.704,41.612,5.704,63.918 c0,22.299,8.685,43.261,24.457,59.032c15.804,15.799,36.696,24.44,58.978,24.44l30.456-76.669L53.769,4.89z"/>
      <path style="fill:#E6C892;" d="M43.965,42.308c-3.184,6.663-4.87,14.005-4.87,21.609c0,13.375,5.207,25.956,14.674,35.418 c9.717,9.707,22.663,14.875,36.381,14.658l5.837-19.663L43.965,42.308z"/>
      <path style="fill:#7E7F85;" d="M481.889,4.892c-6.521-6.521-17.087-6.521-23.609,0l-65.837,65.832l30.456,76.669 c22.293,0,43.185-8.642,58.989-24.446C514.432,90.397,514.432,37.435,481.889,4.892z"/>
      <path style="fill:#D8B68A;" d="M468.062,42.331l-52.011,52L422.877,114c13.38,0,25.913-5.185,35.403-14.669 C473.671,83.94,476.932,60.946,468.062,42.331z"/>
      <path style="fill:#A3A5AE;" d="M289.453,0h-66.783c-42.742,0-83.701,18.365-112.196,50.198 C85.988,77.802,72.41,113.308,72.41,150.261v187.325c0,19.478,6.901,38.4,19.367,53.426l47.416,56.877v14.024 c0,27.603,22.483,50.087,50.087,50.087h133.565c27.603,0,50.087-22.483,50.087-50.087v-14.024l47.416-56.877 c12.466-15.026,19.367-33.948,19.367-53.426V150.261C439.714,67.45,372.264,0,289.453,0z"/>
      <path style="fill:#999CA4;" d="M439.714,150.261v187.325c0,19.478-6.901,38.4-19.367,53.426l-47.416,56.877v14.024 c0,27.603-22.483,50.087-50.087,50.087h-66.783V0h33.391C372.264,0,439.714,67.45,439.714,150.261z"/>
      <circle style="fill:#696B6F;" cx="222.675" cy="428.522" r="16.696"/>
      <circle style="fill:#616267;" cx="289.458" cy="428.522" r="16.696"/>
      <circle style="fill:#696B6F;" cx="155.893" cy="217.043" r="16.696"/>
      <circle style="fill:#616267;" cx="356.24" cy="217.043" r="16.696"/>
      <path style="fill:#85878D;" d="M177.562,367.304c-7.032,0-13.566-4.468-15.87-11.511c-2.869-8.761,1.913-18.19,10.674-21.06 c16.782-5.484,28.403-17.619,34.543-36.059c2.902-8.75,12.359-13.495,21.109-10.565c8.75,2.918,13.478,12.369,10.565,21.12 c-9.532,28.62-28.837,48.413-55.826,57.245C181.03,367.033,179.28,367.304,177.562,367.304z"/>
      <path style="fill:#7E7F85;" d="M334.652,367.304c-1.717,0-3.467-0.266-5.196-0.831c-26.978-8.832-46.294-28.62-55.837-57.239 c-2.913-8.744,1.804-18.202,10.554-21.12c8.75-2.913,18.196,1.81,21.12,10.554c6.152,18.445,17.783,30.582,34.554,36.065 c8.761,2.869,13.544,12.299,10.674,21.06C348.216,362.831,341.684,367.304,334.652,367.304z"/>
      <path style="fill:#DFE2EF;" d="M296.354,197.343c-12.132-118.205-21.594-130.56-40.181-130.56h-0.111 c-18.587,0-28.049,12.577-40.181,130.56c-6.01,58.769-9.795,120.654-9.795,131.005c0,27.603,22.372,49.976,49.976,50.087h0.111 c27.603,0,50.087-22.483,50.087-50.087C306.26,317.997,302.364,256.111,296.354,197.343z"/>
      <path style="fill:#D5D7E5;" d="M306.26,328.348c0,27.603-22.483,50.087-50.087,50.087h-0.111V66.783h0.111 c18.587,0,28.049,12.355,40.181,130.56C302.364,256.111,306.26,317.997,306.26,328.348z"/>
    </g>
  </g>
  <g id="group-10" stroke-width="0" transform="matrix(1, 0, 0, 1, 384.823975, -22.177282)"/>
  <g id="group-11" stroke-linecap="round" stroke-linejoin="round" transform="matrix(1, 0, 0, 1, 384.823975, -22.177282)"/>
  <g id="group-12" transform="matrix(1.081085, 0, 0, 0.925487, 355.830688, 68.582611)" style="">
    <ellipse cx="64" cy="116.87" rx="12.09" ry="7.13" fill="#424242"/>
    <path d="M64 4C42.92 4 25.82 19.67 25.82 38.99c0 5.04 1.52 10.43 3.75 15.18c3.13 6.68 6.54 11.62 7.54 13.44c2.78 5.06 2.38 10.39 3.15 13.73c1.45 6.24 5.79 8.5 23.73 8.5s21.8-2.15 23.41-7.9c1.1-3.91.03-8.18 2.8-13.23c1-1.82 5.07-7.85 8.21-14.54c2.23-4.75 3.75-10.14 3.75-15.18C102.18 19.67 85.08 4 64 4z" fill="#ffd600"/>
    <ellipse cx="64" cy="86.13" rx="21.94" ry="4.46" fill="#b26500"/>
    <ellipse cx="64" cy="86.13" rx="21.94" ry="4.46" fill="#b26500"/>
    <ellipse cx="64" cy="86.13" rx="15.99" ry="2.06" fill="#ffa000"/>
    <g fill="none" stroke-width="2" stroke-miterlimit="10">
      <path d="M53.3 56.77c-.62 1.56-2.23 4.77-1.39 6.21c1.95 3.35 6.6 4.55 6.6 7.63c0 4.7-3.42 19.93-3.42 19.93" stroke="#b26500"/>
      <path d="M74.03 56.21s2.24 4.8 1.29 6.95c-.71 1.6-4.98 4.18-5.53 4.61c-2.55 2 .84 22.78.84 22.78" stroke="#b26500"/>
      <path d="M53.3 56.77c3.44-6.8 5.21-22.32.84-21.53c-7.37 1.33 1.71 26.83 6.18 23.9s10.01-23.85 3.21-23.93c-6.8-.08.46 26.66 5.08 23.69c3.65-2.35 12.56-23.66 5.24-23.66c-6.23 0 .19 20.97.19 20.97" stroke="#ffffff"/>
    </g>
    <path d="M85.89 87.06S80.13 89.84 64 89.84s-21.89-2.78-21.89-2.78s-.36 5.14.83 7.47c1.43 2.8 2.53 3.77 2.53 3.77l.6 2.85l-.24.75c-.31.98-.09 2.06.6 2.83l.52.58l.58 2.74l-.2.55c-.38 1.05-.12 2.22.66 3.02l.38.39l.47 2.24s2.38 5.08 15.16 5.08s15.16-5.08 15.16-5.08l.04-.19l.26-.26c.52-.51.69-1.27.44-1.95l-.15-.39l.62-2.96l1.09-1.15c.54-.57.66-1.41.31-2.11l-.5-.99l.63-2.97l.4-.31c.59-.65.6-1.63.34-2.3c-.2-.53-.04-1.13.37-1.52c.63-.6 1.44-1.51 2.04-2.64c1.23-2.29.84-7.45.84-7.45z" fill="#82aec0"/>
    <path d="M45.47 98.3l.54 2.87c5.82-.03 13.59.26 28.5-2.11c2.69-.61 5.92-1.82 2.35-1.32c0-.01-13.69 1.3-31.39.56z" fill="#2f7889"/>
    <path d="M47.47 108.07c6.44-.11 19.6-.75 33.74-3.82l.63-2.97c-14.79 3.36-28.7 3.96-34.95 4.04l.58 2.75z" fill="#2f7889"/>
    <path d="M80.31 108.49c-13.09 2.84-25.34 3.57-31.97 3.73l.43 2.04s.21 6.33 15.16 6.33s15.16-6.33 15.16-6.33s-6.38 1.82-14.23.93a.63.63 0 0 1-.01-1.26c4.69-.62 10.29-1.54 14.84-2.48l.62-2.96z" fill="#2f7889"/>
    <path d="M42.18 87.06s6.46 2.78 21.76 2.78s21.88-2.78 21.88-2.78" fill="none" stroke="#82aec0" stroke-width="3.997" stroke-linecap="round" stroke-miterlimit="10"/>
    <path d="M49.88 10.32c3.91-.96 8-.48 10.8 2.92c.79.96 1.4 2.1 1.54 3.34c.28 2.39-1.2 4.65-2.96 6.31c-5.02 4.74-12.15 7.04-15.39 13.58c-.76 1.53-1.36 3.18-2.52 4.43c-1.16 1.25-3.09 2.01-4.6 1.21c-.8-.42-1.35-1.21-1.8-2c-2.84-5.06-2.63-11.51-.13-16.75c2.75-5.74 8.78-11.5 15.06-13.04z" fill="#ffff8d"/>
    <path d="M46.45 91.93c-.88-.4-.53-1.72.43-1.65c3.22.25 8.7.56 15.95.56c7.64 0 14.36-.57 18.28-.99c.97-.1 1.34 1.23.45 1.64c-3.02 1.42-8.55 3.04-18.03 3.04c-9.25 0-14.35-1.37-17.08-2.6z" fill="#ffd600"/>
    <path d="M51.94 102.03c-.67.24-1.36.57-1.7 1.19c-.12.23-.19.49-.14.75c.08.38.43.65.78.82c.7.34 1.49.43 2.26.44c1.59.02 3.17-.28 4.74-.58c.47-.09.95-.18 1.37-.41c.42-.23.78-.62.85-1.09c.1-.63-.35-1.24-.9-1.54c-1.9-1.05-5.34-.27-7.26.42z" fill="#94d1e0"/>
    <path d="M53.43 108.62c-.67.24-1.36.57-1.7 1.19c-.12.23-.19.49-.14.75c.08.38.43.65.78.82c.7.34 1.49.43 2.26.44c1.59.02 3.17-.28 4.74-.58c.47-.09.95-.18 1.37-.41c.42-.23.78-.62.85-1.09c.1-.63-.35-1.24-.9-1.54c-1.9-1.04-5.35-.26-7.26.42z" fill="#94d1e0"/>
    <path d="M50.01 84.2c.91.09 1.87.01 2.64-.48s1.26-1.49.95-2.35c-.16-.45-.51-.81-.85-1.15c-.75-.74-1.5-1.48-2.24-2.22c-.83-.83-1.66-1.65-2.56-2.4c-1.39-1.16-3.26-2.25-5.09-1.4c-1.56.72-1.93 2.14-1.24 3.63c1.47 3.13 4.89 6.01 8.39 6.37z" fill="#ffff8d"/>
  </g>
  <g id="Capa_1" transform="matrix(1, 0, 0, 1, -1.149298, -96.563721)">
    <g id="group-13" stroke-width="0" transform="matrix(1, 0, 0, 1, 40.664722, 312.164978)"/>
    <g id="group-14" stroke-linecap="round" stroke-linejoin="round" transform="matrix(1, 0, 0, 1, 40.664722, 312.164978)"/>
    <g id="group-15" transform="matrix(1, 0, 0, 1, 40.664722, 312.164978)">
      <g/>
    </g>
  </g>
</svg>