<?xml version="1.0" encoding="utf-8"?>
<svg xmlns="http://www.w3.org/2000/svg" viewBox="7.546 17.994 500 500" xmlns:bx="https://boxy-svg.com" width="500px" height="500px"><defs><bx:export><bx:file format="svg"/></bx:export></defs><g id="group-8" transform="matrix(-1.14126, 0, 0, 1.096647, 463.320343, 230.077271)" style=""><linearGradient id="gradient-1" x1="63.565" x2="63.565" y1="114.7" y2="18.8" gradientUnits="userSpaceOnUse"><stop stop-color="#CCA47A" offset="0"/><stop stop-color="#D6B088" offset="0.257"/><stop stop-color="#DEB892" offset="0.589"/><stop stop-color="#E0BB95" offset="1"/></linearGradient><path d="M72.25 122.57c-11.93 0-29.57-.34-44.92-3.27c-20.5-3.91-22.03-11.96-21.84-19.87c.16-6.73 3.24-29.26 6.28-38.48c4.6-13.94 11.63-27.8 15.91-33.76c5.87-8.17 20.75-21.3 35.71-21.75h.14c1.98 0 3.95 1.3 5.13 3.39l5.85 10.32a7.964 7.964 0 0 1-.08 7.97c-1.19 2-4.65 2.54-4.68 2.55l-2.75.4l1.85 2.09c-.01 0 .61.98-.85 3.1c-1.3 1.89-3.83 2.8-7.72 2.8c-3.65 0-7.81-.83-11.15-1.49c-.2-.04-.41-.06-.62-.06c-1.24 0-2.52.69-3.68 1.99c-1.5 1.67-6.23 8.46-4.31 25.67c.95 8.54-1.88 16.23-1.91 16.31l-1.19 3.18l3.15-1.26c.03-.02 4.83-1.9 11.43-1.9h.7l.45-.54c.14-.17 13.94-16.48 31.85-16.48c11.7 0 22.9 4.74 29.96 12.68c4.98 5.6 7.31 12.23 6.55 18.66C118.57 119.8 95 122.5 85 122.5c-1.4 0-3.04.01-4.87.03c-2.33.02-4.98.04-7.88.04z" fill="url(#gradient-1)"/><path d="M63.54 6.95c1.42 0 2.92 1.03 3.83 2.63l5.85 10.32a6.474 6.474 0 0 1-.06 6.47c-.57.96-2.5 1.66-3.6 1.83l-5.53.78l3.44 3.88c-.01.2-.12.71-.7 1.55c-.99 1.43-3.17 2.16-6.49 2.16c-3.5 0-7.58-.81-10.85-1.46c-.3-.06-.61-.09-.91-.09c-1.17 0-2.96.43-4.8 2.49c-4.27 4.77-6.02 14.8-4.69 26.83c.9 8.13-1.8 15.55-1.83 15.62l-2.36 6.31l6.28-2.47c.03-.03 4.6-1.8 10.88-1.8h1.41l.9-1.08c.13-.16 13.52-15.94 30.7-15.94c11.28 0 22.06 4.55 28.84 12.18c4.69 5.28 6.89 11.49 6.18 17.49c-1.09 9.24-5.2 16.18-12.23 20.65c-7.44 4.71-16.5 5.7-22.8 5.7c-1.4 0-3.04.01-4.88.03c-2.33.02-4.98.04-7.86.04c-11.87 0-29.42-.34-44.64-3.24c-8.97-1.71-14.79-4.3-17.82-7.91c-2.61-3.11-2.88-6.86-2.8-10.45c.16-6.66 3.2-28.94 6.21-38.04c4.39-13.3 11.43-27.4 15.71-33.35c5.7-7.94 20.12-20.69 34.53-21.12l.09-.01m0-3h-.18c-15.81.47-31.1 14.31-36.88 22.37c-4.41 6.15-11.54 20.3-16.12 34.16C7.34 69.64 4.17 92.25 4 99.39c-.21 8.73 1.85 17.33 23.06 21.38c15.09 2.88 32.47 3.3 45.2 3.3c5.17 0 9.57-.07 12.74-.07c17 0 35.39-6.79 38-29c2-17-16-33.02-38-33.02C66.15 61.98 52 79 52 79c-7 0-12 2-12 2s3-8 2-17c-1.99-17.94 3.4-25.99 6.51-25.99c.11 0 .22.01.33.03c3.46.69 7.66 1.52 11.44 1.52s7.14-.83 8.95-3.45c2.25-3.25.74-4.95.74-4.95s4.17-.59 5.76-3.27a9.449 9.449 0 0 0 .1-9.48L69.97 8.09c-1.33-2.35-3.74-4.14-6.43-4.14z" fill="#BA8F63"/><path d="M62.78 18.52c-2.51-.47-5.5-.57-7.83.61c-2.89 1.47-3.9 5.28-2.22 8.05c2.52 4.13 9.33 4.53 13.64 4.36c1.92-.08 1.93-3.08 0-3c-3.11.12-6.99-.04-9.7-1.69c-1.94-1.19-2.6-3.91-.21-5.12c1.54-.79 3.85-.62 5.51-.31c1.9.34 2.71-2.55.81-2.9z" fill="#BA8F63"/><path d="M36.2 82.74c-4.8 6.99-6.04 14.02-4.34 22.3c.39 1.89 3.28 1.09 2.89-.8c-1.54-7.52-.32-13.64 4.04-19.99c1.1-1.59-1.5-3.09-2.59-1.51z" fill="#BA8F63"/><path d="M47.77 34.91c-2.22-.32-5.39-3.01-6.71-5.85c-.4-.86-.23-2.08-1.8-2.17c-2.17-.12-.58 4.24.16 5.31c2.03 2.91 4.78 4.54 8.38 4.8c1.93.14 1.95-1.81-.03-2.09z" fill="#BA8F63"/><path d="M53.55 92.4c2.52 10.41 11.96 18.17 22.37 19.58c10.05 1.36 26.93-.97 31.88-11.72c.8-1.74-1.78-3.27-2.59-1.51c-4.53 9.85-20.7 11.71-29.78 10.15c-8.89-1.53-16.83-8.37-18.98-17.29c-.46-1.88-3.35-1.09-2.9.79z" fill="#AD855C"/></g><g id="Uploaded to svgrepo.com" style="" transform="matrix(4.236844, 0, 0, 3.650047, -1145.609009, -537.397644)"><g id="group-5" stroke-width="0" transform="matrix(1, 0, 0, 1, 290.033112, 216.987961)"/><g id="group-9" stroke-linecap="round" stroke-linejoin="round" transform="matrix(1, 0, 0, 1, 290.033112, 216.987961)"/><g id="SVGRepo_iconCarrier" transform="matrix(1, 0, 0, 1, 290.033112, 216.987961)"><path class="stone_een" d="M16,2C8.268,2,2,8.268,2,16s6.268,14,14,14s14-6.268,14-14S23.732,2,16,2z M24.295,26.017 c-0.004,0.003-0.008,0.007-0.012,0.01c-0.089,0.075-0.203,0.115-0.32,0.115H8.037c-0.117,0-0.23-0.04-0.32-0.115 c-0.004-0.003-0.008-0.007-0.012-0.01c-0.353-0.298-0.142-0.875,0.32-0.875h15.951C24.437,25.143,24.648,25.72,24.295,26.017z M28.555,15.859L24,17.681v3.402l2.646,1.323c0.261,0.131,0.355,0.459,0.199,0.706c-0.002,0.003-0.004,0.006-0.005,0.009 c-0.136,0.215-0.414,0.293-0.641,0.179l-2.316-1.158H8.117L5.802,23.3c-0.228,0.114-0.505,0.036-0.642-0.179 c-0.002-0.003-0.004-0.006-0.005-0.009c-0.156-0.247-0.063-0.576,0.199-0.706L8,21.083v-3.401l-4.555-1.823 c-0.195-0.078-0.321-0.27-0.311-0.479c0-0.007,0.001-0.014,0.001-0.022c0.017-0.337,0.365-0.555,0.678-0.429L8,16.604v-3.923 l-3.404-1.363c-0.267-0.107-0.389-0.419-0.262-0.677c0.002-0.003,0.003-0.006,0.005-0.009c0.114-0.233,0.389-0.339,0.63-0.242 L8,11.604V6.278c0-0.154,0.07-0.301,0.193-0.394c0.003-0.003,0.007-0.005,0.01-0.008C8.529,5.628,9,5.86,9,6.271v14.872l4,0V4.006 c0-0.237,0.168-0.44,0.401-0.487c0.003-0.001,0.007-0.001,0.01-0.002C13.716,3.456,14,3.693,14,4.004v17.138l4,0V4.004 c0-0.311,0.284-0.548,0.589-0.487c0.003,0.001,0.007,0.001,0.01,0.002C18.832,3.566,19,3.769,19,4.006v17.136l4,0V6.271 c0-0.41,0.471-0.642,0.797-0.394c0.003,0.003,0.007,0.005,0.01,0.008C23.93,5.978,24,6.124,24,6.278v5.325l3.032-1.213 c0.241-0.096,0.516,0.01,0.63,0.242c0.002,0.003,0.003,0.006,0.005,0.009c0.126,0.258,0.005,0.57-0.262,0.677L24,12.681v3.923 l4.186-1.675c0.313-0.125,0.661,0.092,0.678,0.429c0,0.007,0.001,0.014,0.001,0.022C28.875,15.589,28.749,15.781,28.555,15.859z" style="fill: rgb(28, 113, 216);"/></g></g><g fill="none" fill-rule="evenodd" transform="matrix(4.364871, 0, 0, 4.432856, 118.744873, 91.107628)" style=""><path fill="#979797" d="M2,10 L17,10 L17,20 L10.0021863,20 C7.23955507,20 4.35642473,17.8547491 3.5615081,15.205027 L2,10 Z" transform="rotate(30 9.5 15)"/><path fill="#979797" d="M48,10 L63,10 L63,20 L56.0021863,20 C53.2395551,20 50.3564247,17.8547491 49.5615081,15.205027 L48,10 Z" transform="scale(-1 1) rotate(30 0 -192.129)"/><path fill="#D8D8D8" d="M16,12 L48,12 L52.5,28 L51.5606777,38.0194376 C51.251024,41.322411 48.3127737,44 44.9997559,44 L19.0002441,44 C15.6864008,44 12.7489337,41.3219597 12.4393223,38.0194376 L11.5,28 L16,12 Z" transform="matrix(1 0 0 -1 0 56)"/><path fill="#595959" d="M11,44.9971369 C11,41.1327249 14.1396498,38 18.0062098,38 L45.9937902,38 C49.863213,38 53,41.1409534 53,44.9971369 L53,50.5 C53,57.4035594 47.4010153,63 40.4981301,63 L23.5018699,63 C16.5972778,63 11,57.4050773 11,50.5 L11,44.9971369 Z" transform="matrix(1 0 0 -1 0 101)"/><ellipse cx="18.451" cy="52.572" fill="#979797" rx="3" ry="6" transform="rotate(-15 18.45 52.572)"/><ellipse cx="46.451" cy="52.572" fill="#979797" rx="3" ry="6" transform="scale(-1 1) rotate(-15 0 405.4)"/><circle cx="18" cy="34" r="2" fill="#595959"/><circle cx="46" cy="34" r="2" fill="#595959"/><path fill="#979797" d="M32,3 L38,35 C38,35 35,37 32,37 C29,37 26,35 26,35 L32,3 Z"/></g><g id="SVGRepo_bgCarrier" stroke-width="0" transform="matrix(6.998538, 0, 0, 6.348047, 36.448601, 255.438507)" style=""/><g id="group-1" stroke-width="0" transform="matrix(5.384474, 0, 0, 6.179415, 209.761688, 232.648087)" style=""/><g id="group-2" stroke-width="0" transform="matrix(1, 0, 0, 1, 234.026031, 316.795624)"/><g id="group-3" stroke-linecap="round" stroke-linejoin="round" transform="matrix(1, 0, 0, 1, 234.026031, 316.795624)"/><g id="group-4" stroke-width="0" transform="matrix(1, 0, 0, 1, 314.544952, 150.427628)"/><g id="SVGRepo_tracerCarrier" stroke-linecap="round" stroke-linejoin="round" transform="matrix(1, 0, 0, 1, 314.544952, 150.427628)"/><g id="group-6" stroke-width="0" transform="matrix(1, 0, 0, 1, 228.153427, 200.778519)"/><g id="group-7" stroke-linecap="round" stroke-linejoin="round" transform="matrix(1, 0, 0, 1, 228.153427, 200.778519)"/><g id="group-10" stroke-width="0" transform="matrix(6.547432, 0, 0, 4.975071, 63.189251, 277.458893)" style=""/><g id="group-11" stroke-linecap="round" stroke-linejoin="round" transform="matrix(6.547432, 0, 0, 4.975071, 63.189251, 277.458893)" style=""/></svg>